<?xml version="1.0" encoding="utf-8" standalone="no"?>
<!DOCTYPE svg PUBLIC "-//W3C//DTD SVG 1.1//EN"
  "http://www.w3.org/Graphics/SVG/1.1/DTD/svg11.dtd">
<svg xmlns:xlink="http://www.w3.org/1999/xlink" width="1382.4pt" height="777.6pt" viewBox="0 0 1382.4 777.6" xmlns="http://www.w3.org/2000/svg" version="1.1">
 <metadata>
  <rdf:RDF xmlns:dc="http://purl.org/dc/elements/1.1/" xmlns:cc="http://creativecommons.org/ns#" xmlns:rdf="http://www.w3.org/1999/02/22-rdf-syntax-ns#">
   <cc:Work>
    <dc:type rdf:resource="http://purl.org/dc/dcmitype/StillImage"/>
    <dc:date>2022-04-19T13:20:04.059092</dc:date>
    <dc:format>image/svg+xml</dc:format>
    <dc:creator>
     <cc:Agent>
      <dc:title>Matplotlib v3.5.1, https://matplotlib.org/</dc:title>
     </cc:Agent>
    </dc:creator>
   </cc:Work>
  </rdf:RDF>
 </metadata>
 <defs>
  <style type="text/css">*{stroke-linejoin: round; stroke-linecap: butt}</style>
 </defs>
 <g id="figure_1">
  <g id="patch_1">
   <path d="M 0 777.6 
L 1382.4 777.6 
L 1382.4 0 
L 0 0 
z
" style="fill: #ffffff"/>
  </g>
  <g id="axes_1">
   <g id="patch_2">
    <path d="M 172.8 692.064 
L 1244.16 692.064 
L 1244.16 93.312 
L 172.8 93.312 
z
" style="fill: #ffffff"/>
   </g>
   <g id="patch_3">
    <path d="M 221.498182 157.009021 
L 321.391888 157.009021 
L 321.391888 157.009021 
L 221.498182 157.009021 
z
" clip-path="url(#pae6085a3ec)" style="fill: #ff0000"/>
   </g>
   <g id="patch_4">
    <path d="M 221.498182 157.009021 
L 321.391888 157.009021 
L 321.391888 157.009021 
L 221.498182 157.009021 
z
" clip-path="url(#pae6085a3ec)" style="fill: #008000"/>
   </g>
   <g id="patch_5">
    <path d="M 221.498182 157.009021 
L 321.391888 157.009021 
L 321.391888 206.72377 
L 221.498182 206.72377 
z
" clip-path="url(#pae6085a3ec)" style="fill: #0000ff"/>
   </g>
   <g id="patch_6">
    <path d="M 221.498182 206.72377 
L 321.391888 206.72377 
L 321.391888 380.725389 
L 221.498182 380.725389 
z
" clip-path="url(#pae6085a3ec)" style="fill: #ff0000"/>
   </g>
   <g id="patch_7">
    <path d="M 221.498182 380.725389 
L 321.391888 380.725389 
L 321.391888 430.440137 
L 221.498182 430.440137 
z
" clip-path="url(#pae6085a3ec)" style="fill: #008000"/>
   </g>
   <g id="patch_8">
    <path d="M 221.498182 430.440137 
L 321.391888 430.440137 
L 321.391888 579.584382 
L 221.498182 579.584382 
z
" clip-path="url(#pae6085a3ec)" style="fill: #0000ff"/>
   </g>
   <g id="patch_9">
    <path d="M 221.498182 579.584382 
L 321.391888 579.584382 
L 321.391888 616.870443 
L 221.498182 616.870443 
z
" clip-path="url(#pae6085a3ec)" style="fill: #ff0000"/>
   </g>
   <g id="patch_10">
    <path d="M 221.498182 616.870443 
L 321.391888 616.870443 
L 321.391888 666.585191 
L 221.498182 666.585191 
z
" clip-path="url(#pae6085a3ec)" style="fill: #008000"/>
   </g>
   <g id="patch_11">
    <path d="M 346.365315 157.009021 
L 446.259021 157.009021 
L 446.259021 163.223365 
L 346.365315 163.223365 
z
" clip-path="url(#pae6085a3ec)" style="fill: #ff0000"/>
   </g>
   <g id="patch_12">
    <path d="M 346.365315 163.223365 
L 446.259021 163.223365 
L 446.259021 200.509426 
L 346.365315 200.509426 
z
" clip-path="url(#pae6085a3ec)" style="fill: #008000"/>
   </g>
   <g id="patch_13">
    <path d="M 346.365315 200.509426 
L 446.259021 200.509426 
L 446.259021 237.795487 
L 346.365315 237.795487 
z
" clip-path="url(#pae6085a3ec)" style="fill: #0000ff"/>
   </g>
   <g id="patch_14">
    <path d="M 346.365315 237.795487 
L 446.259021 237.795487 
L 446.259021 299.938923 
L 346.365315 299.938923 
z
" clip-path="url(#pae6085a3ec)" style="fill: #ff0000"/>
   </g>
   <g id="patch_15">
    <path d="M 346.365315 299.938923 
L 446.259021 299.938923 
L 446.259021 349.653671 
L 346.365315 349.653671 
z
" clip-path="url(#pae6085a3ec)" style="fill: #008000"/>
   </g>
   <g id="patch_16">
    <path d="M 346.365315 349.653671 
L 446.259021 349.653671 
L 446.259021 386.939732 
L 346.365315 386.939732 
z
" clip-path="url(#pae6085a3ec)" style="fill: #0000ff"/>
   </g>
   <g id="patch_17">
    <path d="M 346.365315 386.939732 
L 446.259021 386.939732 
L 446.259021 424.225793 
L 346.365315 424.225793 
z
" clip-path="url(#pae6085a3ec)" style="fill: #ff0000"/>
   </g>
   <g id="patch_18">
    <path d="M 346.365315 424.225793 
L 446.259021 424.225793 
L 446.259021 436.654481 
L 346.365315 436.654481 
z
" clip-path="url(#pae6085a3ec)" style="fill: #008000"/>
   </g>
   <g id="patch_19">
    <path d="M 346.365315 436.654481 
L 446.259021 436.654481 
L 446.259021 436.654481 
L 346.365315 436.654481 
z
" clip-path="url(#pae6085a3ec)" style="fill: #0000ff"/>
   </g>
   <g id="patch_20">
    <path d="M 471.232448 157.009021 
L 571.126154 157.009021 
L 571.126154 169.437708 
L 471.232448 169.437708 
z
" clip-path="url(#pae6085a3ec)" style="fill: #ff0000"/>
   </g>
   <g id="patch_21">
    <path d="M 471.232448 169.437708 
L 571.126154 169.437708 
L 571.126154 169.437708 
L 471.232448 169.437708 
z
" clip-path="url(#pae6085a3ec)" style="fill: #008000"/>
   </g>
   <g id="patch_22">
    <path d="M 471.232448 169.437708 
L 571.126154 169.437708 
L 571.126154 231.581144 
L 471.232448 231.581144 
z
" clip-path="url(#pae6085a3ec)" style="fill: #0000ff"/>
   </g>
   <g id="patch_23">
    <path d="M 471.232448 231.581144 
L 571.126154 231.581144 
L 571.126154 293.724579 
L 471.232448 293.724579 
z
" clip-path="url(#pae6085a3ec)" style="fill: #ff0000"/>
   </g>
   <g id="patch_24">
    <path d="M 471.232448 293.724579 
L 571.126154 293.724579 
L 571.126154 343.439327 
L 471.232448 343.439327 
z
" clip-path="url(#pae6085a3ec)" style="fill: #008000"/>
   </g>
   <g id="patch_25">
    <path d="M 596.09958 157.009021 
L 695.993287 157.009021 
L 695.993287 163.223365 
L 596.09958 163.223365 
z
" clip-path="url(#pae6085a3ec)" style="fill: #ff0000"/>
   </g>
   <g id="patch_26">
    <path d="M 596.09958 163.223365 
L 695.993287 163.223365 
L 695.993287 200.509426 
L 596.09958 200.509426 
z
" clip-path="url(#pae6085a3ec)" style="fill: #008000"/>
   </g>
   <g id="patch_27">
    <path d="M 596.09958 200.509426 
L 695.993287 200.509426 
L 695.993287 237.795487 
L 596.09958 237.795487 
z
" clip-path="url(#pae6085a3ec)" style="fill: #0000ff"/>
   </g>
   <g id="patch_28">
    <path d="M 596.09958 237.795487 
L 695.993287 237.795487 
L 695.993287 299.938923 
L 596.09958 299.938923 
z
" clip-path="url(#pae6085a3ec)" style="fill: #ff0000"/>
   </g>
   <g id="patch_29">
    <path d="M 596.09958 299.938923 
L 695.993287 299.938923 
L 695.993287 337.224984 
L 596.09958 337.224984 
z
" clip-path="url(#pae6085a3ec)" style="fill: #008000"/>
   </g>
   <g id="patch_30">
    <path d="M 720.966713 157.009021 
L 820.86042 157.009021 
L 820.86042 169.437708 
L 720.966713 169.437708 
z
" clip-path="url(#pae6085a3ec)" style="fill: #ff0000"/>
   </g>
   <g id="patch_31">
    <path d="M 720.966713 169.437708 
L 820.86042 169.437708 
L 820.86042 169.437708 
L 720.966713 169.437708 
z
" clip-path="url(#pae6085a3ec)" style="fill: #008000"/>
   </g>
   <g id="patch_32">
    <path d="M 720.966713 169.437708 
L 820.86042 169.437708 
L 820.86042 231.581144 
L 720.966713 231.581144 
z
" clip-path="url(#pae6085a3ec)" style="fill: #0000ff"/>
   </g>
   <g id="patch_33">
    <path d="M 720.966713 231.581144 
L 820.86042 231.581144 
L 820.86042 293.724579 
L 720.966713 293.724579 
z
" clip-path="url(#pae6085a3ec)" style="fill: #ff0000"/>
   </g>
   <g id="patch_34">
    <path d="M 720.966713 293.724579 
L 820.86042 293.724579 
L 820.86042 318.581953 
L 720.966713 318.581953 
z
" clip-path="url(#pae6085a3ec)" style="fill: #008000"/>
   </g>
   <g id="patch_35">
    <path d="M 845.833846 157.009021 
L 945.727552 157.009021 
L 945.727552 163.223365 
L 845.833846 163.223365 
z
" clip-path="url(#pae6085a3ec)" style="fill: #ff0000"/>
   </g>
   <g id="patch_36">
    <path d="M 845.833846 163.223365 
L 945.727552 163.223365 
L 945.727552 200.509426 
L 845.833846 200.509426 
z
" clip-path="url(#pae6085a3ec)" style="fill: #008000"/>
   </g>
   <g id="patch_37">
    <path d="M 845.833846 200.509426 
L 945.727552 200.509426 
L 945.727552 212.938113 
L 845.833846 212.938113 
z
" clip-path="url(#pae6085a3ec)" style="fill: #0000ff"/>
   </g>
   <g id="patch_38">
    <path d="M 970.700979 157.009021 
L 1070.594685 157.009021 
L 1070.594685 157.009021 
L 970.700979 157.009021 
z
" clip-path="url(#pae6085a3ec)" style="fill: #ff0000"/>
   </g>
   <g id="patch_39">
    <path d="M 970.700979 157.009021 
L 1070.594685 157.009021 
L 1070.594685 169.437708 
L 970.700979 169.437708 
z
" clip-path="url(#pae6085a3ec)" style="fill: #008000"/>
   </g>
   <g id="patch_40">
    <path d="M 1095.568112 157.009021 
L 1195.461818 157.009021 
L 1195.461818 163.223365 
L 1095.568112 163.223365 
z
" clip-path="url(#pae6085a3ec)" style="fill: #ff0000"/>
   </g>
   <g id="matplotlib.axis_1">
    <g id="xtick_1">
     <g id="line2d_1">
      <defs>
       <path id="mb3802ae09e" d="M 0 0 
L 0 3.5 
" style="stroke: #000000; stroke-width: 0.8"/>
      </defs>
      <g>
       <use xlink:href="#mb3802ae09e" x="271.445035" y="692.064" style="stroke: #000000; stroke-width: 0.8"/>
      </g>
     </g>
     <g id="text_1">
      <!-- A -->
      <g transform="translate(268.024722 706.662438)scale(0.1 -0.1)">
       <defs>
        <path id="DejaVuSans-41" d="M 2188 4044 
L 1331 1722 
L 3047 1722 
L 2188 4044 
z
M 1831 4666 
L 2547 4666 
L 4325 0 
L 3669 0 
L 3244 1197 
L 1141 1197 
L 716 0 
L 50 0 
L 1831 4666 
z
" transform="scale(0.015625)"/>
       </defs>
       <use xlink:href="#DejaVuSans-41"/>
      </g>
     </g>
    </g>
    <g id="xtick_2">
     <g id="line2d_2">
      <g>
       <use xlink:href="#mb3802ae09e" x="396.312168" y="692.064" style="stroke: #000000; stroke-width: 0.8"/>
      </g>
     </g>
     <g id="text_2">
      <!-- B -->
      <g transform="translate(392.881699 706.662438)scale(0.1 -0.1)">
       <defs>
        <path id="DejaVuSans-42" d="M 1259 2228 
L 1259 519 
L 2272 519 
Q 2781 519 3026 730 
Q 3272 941 3272 1375 
Q 3272 1813 3026 2020 
Q 2781 2228 2272 2228 
L 1259 2228 
z
M 1259 4147 
L 1259 2741 
L 2194 2741 
Q 2656 2741 2882 2914 
Q 3109 3088 3109 3444 
Q 3109 3797 2882 3972 
Q 2656 4147 2194 4147 
L 1259 4147 
z
M 628 4666 
L 2241 4666 
Q 2963 4666 3353 4366 
Q 3744 4066 3744 3513 
Q 3744 3084 3544 2831 
Q 3344 2578 2956 2516 
Q 3422 2416 3680 2098 
Q 3938 1781 3938 1306 
Q 3938 681 3513 340 
Q 3088 0 2303 0 
L 628 0 
L 628 4666 
z
" transform="scale(0.015625)"/>
       </defs>
       <use xlink:href="#DejaVuSans-42"/>
      </g>
     </g>
    </g>
    <g id="xtick_3">
     <g id="line2d_3">
      <g>
       <use xlink:href="#mb3802ae09e" x="521.179301" y="692.064" style="stroke: #000000; stroke-width: 0.8"/>
      </g>
     </g>
     <g id="text_3">
      <!-- C -->
      <g transform="translate(517.687894 706.662438)scale(0.1 -0.1)">
       <defs>
        <path id="DejaVuSans-43" d="M 4122 4306 
L 4122 3641 
Q 3803 3938 3442 4084 
Q 3081 4231 2675 4231 
Q 1875 4231 1450 3742 
Q 1025 3253 1025 2328 
Q 1025 1406 1450 917 
Q 1875 428 2675 428 
Q 3081 428 3442 575 
Q 3803 722 4122 1019 
L 4122 359 
Q 3791 134 3420 21 
Q 3050 -91 2638 -91 
Q 1578 -91 968 557 
Q 359 1206 359 2328 
Q 359 3453 968 4101 
Q 1578 4750 2638 4750 
Q 3056 4750 3426 4639 
Q 3797 4528 4122 4306 
z
" transform="scale(0.015625)"/>
       </defs>
       <use xlink:href="#DejaVuSans-43"/>
      </g>
     </g>
    </g>
    <g id="xtick_4">
     <g id="line2d_4">
      <g>
       <use xlink:href="#mb3802ae09e" x="646.046434" y="692.064" style="stroke: #000000; stroke-width: 0.8"/>
      </g>
     </g>
     <g id="text_4">
      <!-- D -->
      <g transform="translate(642.196434 706.662438)scale(0.1 -0.1)">
       <defs>
        <path id="DejaVuSans-44" d="M 1259 4147 
L 1259 519 
L 2022 519 
Q 2988 519 3436 956 
Q 3884 1394 3884 2338 
Q 3884 3275 3436 3711 
Q 2988 4147 2022 4147 
L 1259 4147 
z
M 628 4666 
L 1925 4666 
Q 3281 4666 3915 4102 
Q 4550 3538 4550 2338 
Q 4550 1131 3912 565 
Q 3275 0 1925 0 
L 628 0 
L 628 4666 
z
" transform="scale(0.015625)"/>
       </defs>
       <use xlink:href="#DejaVuSans-44"/>
      </g>
     </g>
    </g>
    <g id="xtick_5">
     <g id="line2d_5">
      <g>
       <use xlink:href="#mb3802ae09e" x="770.913566" y="692.064" style="stroke: #000000; stroke-width: 0.8"/>
      </g>
     </g>
     <g id="text_5">
      <!-- E -->
      <g transform="translate(767.754191 706.662438)scale(0.1 -0.1)">
       <defs>
        <path id="DejaVuSans-45" d="M 628 4666 
L 3578 4666 
L 3578 4134 
L 1259 4134 
L 1259 2753 
L 3481 2753 
L 3481 2222 
L 1259 2222 
L 1259 531 
L 3634 531 
L 3634 0 
L 628 0 
L 628 4666 
z
" transform="scale(0.015625)"/>
       </defs>
       <use xlink:href="#DejaVuSans-45"/>
      </g>
     </g>
    </g>
    <g id="xtick_6">
     <g id="line2d_6">
      <g>
       <use xlink:href="#mb3802ae09e" x="895.780699" y="692.064" style="stroke: #000000; stroke-width: 0.8"/>
      </g>
     </g>
     <g id="text_6">
      <!-- F -->
      <g transform="translate(892.904918 706.662438)scale(0.1 -0.1)">
       <defs>
        <path id="DejaVuSans-46" d="M 628 4666 
L 3309 4666 
L 3309 4134 
L 1259 4134 
L 1259 2759 
L 3109 2759 
L 3109 2228 
L 1259 2228 
L 1259 0 
L 628 0 
L 628 4666 
z
" transform="scale(0.015625)"/>
       </defs>
       <use xlink:href="#DejaVuSans-46"/>
      </g>
     </g>
    </g>
    <g id="xtick_7">
     <g id="line2d_7">
      <g>
       <use xlink:href="#mb3802ae09e" x="1020.647832" y="692.064" style="stroke: #000000; stroke-width: 0.8"/>
      </g>
     </g>
     <g id="text_7">
      <!-- G -->
      <g transform="translate(1016.773613 706.662438)scale(0.1 -0.1)">
       <defs>
        <path id="DejaVuSans-47" d="M 3809 666 
L 3809 1919 
L 2778 1919 
L 2778 2438 
L 4434 2438 
L 4434 434 
Q 4069 175 3628 42 
Q 3188 -91 2688 -91 
Q 1594 -91 976 548 
Q 359 1188 359 2328 
Q 359 3472 976 4111 
Q 1594 4750 2688 4750 
Q 3144 4750 3555 4637 
Q 3966 4525 4313 4306 
L 4313 3634 
Q 3963 3931 3569 4081 
Q 3175 4231 2741 4231 
Q 1884 4231 1454 3753 
Q 1025 3275 1025 2328 
Q 1025 1384 1454 906 
Q 1884 428 2741 428 
Q 3075 428 3337 486 
Q 3600 544 3809 666 
z
" transform="scale(0.015625)"/>
       </defs>
       <use xlink:href="#DejaVuSans-47"/>
      </g>
     </g>
    </g>
    <g id="xtick_8">
     <g id="line2d_8">
      <g>
       <use xlink:href="#mb3802ae09e" x="1145.514965" y="692.064" style="stroke: #000000; stroke-width: 0.8"/>
      </g>
     </g>
     <g id="text_8">
      <!-- H -->
      <g transform="translate(1141.754809 706.662438)scale(0.1 -0.1)">
       <defs>
        <path id="DejaVuSans-48" d="M 628 4666 
L 1259 4666 
L 1259 2753 
L 3553 2753 
L 3553 4666 
L 4184 4666 
L 4184 0 
L 3553 0 
L 3553 2222 
L 1259 2222 
L 1259 0 
L 628 0 
L 628 4666 
z
" transform="scale(0.015625)"/>
       </defs>
       <use xlink:href="#DejaVuSans-48"/>
      </g>
     </g>
    </g>
   </g>
   <g id="matplotlib.axis_2">
    <g id="ytick_1">
     <g id="line2d_9">
      <defs>
       <path id="m50d4e7c7c6" d="M 0 0 
L -3.5 0 
" style="stroke: #000000; stroke-width: 0.8"/>
      </defs>
      <g>
       <use xlink:href="#m50d4e7c7c6" x="172.8" y="623.084787" style="stroke: #000000; stroke-width: 0.8"/>
      </g>
     </g>
     <g id="text_9">
      <!-- −300 -->
      <g transform="translate(138.332812 626.884005)scale(0.1 -0.1)">
       <defs>
        <path id="DejaVuSans-2212" d="M 678 2272 
L 4684 2272 
L 4684 1741 
L 678 1741 
L 678 2272 
z
" transform="scale(0.015625)"/>
        <path id="DejaVuSans-33" d="M 2597 2516 
Q 3050 2419 3304 2112 
Q 3559 1806 3559 1356 
Q 3559 666 3084 287 
Q 2609 -91 1734 -91 
Q 1441 -91 1130 -33 
Q 819 25 488 141 
L 488 750 
Q 750 597 1062 519 
Q 1375 441 1716 441 
Q 2309 441 2620 675 
Q 2931 909 2931 1356 
Q 2931 1769 2642 2001 
Q 2353 2234 1838 2234 
L 1294 2234 
L 1294 2753 
L 1863 2753 
Q 2328 2753 2575 2939 
Q 2822 3125 2822 3475 
Q 2822 3834 2567 4026 
Q 2313 4219 1838 4219 
Q 1578 4219 1281 4162 
Q 984 4106 628 3988 
L 628 4550 
Q 988 4650 1302 4700 
Q 1616 4750 1894 4750 
Q 2613 4750 3031 4423 
Q 3450 4097 3450 3541 
Q 3450 3153 3228 2886 
Q 3006 2619 2597 2516 
z
" transform="scale(0.015625)"/>
        <path id="DejaVuSans-30" d="M 2034 4250 
Q 1547 4250 1301 3770 
Q 1056 3291 1056 2328 
Q 1056 1369 1301 889 
Q 1547 409 2034 409 
Q 2525 409 2770 889 
Q 3016 1369 3016 2328 
Q 3016 3291 2770 3770 
Q 2525 4250 2034 4250 
z
M 2034 4750 
Q 2819 4750 3233 4129 
Q 3647 3509 3647 2328 
Q 3647 1150 3233 529 
Q 2819 -91 2034 -91 
Q 1250 -91 836 529 
Q 422 1150 422 2328 
Q 422 3509 836 4129 
Q 1250 4750 2034 4750 
z
" transform="scale(0.015625)"/>
       </defs>
       <use xlink:href="#DejaVuSans-2212"/>
       <use xlink:href="#DejaVuSans-33" x="83.789062"/>
       <use xlink:href="#DejaVuSans-30" x="147.412109"/>
       <use xlink:href="#DejaVuSans-30" x="211.035156"/>
      </g>
     </g>
    </g>
    <g id="ytick_2">
     <g id="line2d_10">
      <g>
       <use xlink:href="#m50d4e7c7c6" x="172.8" y="545.405492" style="stroke: #000000; stroke-width: 0.8"/>
      </g>
     </g>
     <g id="text_10">
      <!-- −250 -->
      <g transform="translate(138.332812 549.204711)scale(0.1 -0.1)">
       <defs>
        <path id="DejaVuSans-32" d="M 1228 531 
L 3431 531 
L 3431 0 
L 469 0 
L 469 531 
Q 828 903 1448 1529 
Q 2069 2156 2228 2338 
Q 2531 2678 2651 2914 
Q 2772 3150 2772 3378 
Q 2772 3750 2511 3984 
Q 2250 4219 1831 4219 
Q 1534 4219 1204 4116 
Q 875 4013 500 3803 
L 500 4441 
Q 881 4594 1212 4672 
Q 1544 4750 1819 4750 
Q 2544 4750 2975 4387 
Q 3406 4025 3406 3419 
Q 3406 3131 3298 2873 
Q 3191 2616 2906 2266 
Q 2828 2175 2409 1742 
Q 1991 1309 1228 531 
z
" transform="scale(0.015625)"/>
        <path id="DejaVuSans-35" d="M 691 4666 
L 3169 4666 
L 3169 4134 
L 1269 4134 
L 1269 2991 
Q 1406 3038 1543 3061 
Q 1681 3084 1819 3084 
Q 2600 3084 3056 2656 
Q 3513 2228 3513 1497 
Q 3513 744 3044 326 
Q 2575 -91 1722 -91 
Q 1428 -91 1123 -41 
Q 819 9 494 109 
L 494 744 
Q 775 591 1075 516 
Q 1375 441 1709 441 
Q 2250 441 2565 725 
Q 2881 1009 2881 1497 
Q 2881 1984 2565 2268 
Q 2250 2553 1709 2553 
Q 1456 2553 1204 2497 
Q 953 2441 691 2322 
L 691 4666 
z
" transform="scale(0.015625)"/>
       </defs>
       <use xlink:href="#DejaVuSans-2212"/>
       <use xlink:href="#DejaVuSans-32" x="83.789062"/>
       <use xlink:href="#DejaVuSans-35" x="147.412109"/>
       <use xlink:href="#DejaVuSans-30" x="211.035156"/>
      </g>
     </g>
    </g>
    <g id="ytick_3">
     <g id="line2d_11">
      <g>
       <use xlink:href="#m50d4e7c7c6" x="172.8" y="467.726198" style="stroke: #000000; stroke-width: 0.8"/>
      </g>
     </g>
     <g id="text_11">
      <!-- −200 -->
      <g transform="translate(138.332812 471.525417)scale(0.1 -0.1)">
       <use xlink:href="#DejaVuSans-2212"/>
       <use xlink:href="#DejaVuSans-32" x="83.789062"/>
       <use xlink:href="#DejaVuSans-30" x="147.412109"/>
       <use xlink:href="#DejaVuSans-30" x="211.035156"/>
      </g>
     </g>
    </g>
    <g id="ytick_4">
     <g id="line2d_12">
      <g>
       <use xlink:href="#m50d4e7c7c6" x="172.8" y="390.046904" style="stroke: #000000; stroke-width: 0.8"/>
      </g>
     </g>
     <g id="text_12">
      <!-- −150 -->
      <g transform="translate(138.332812 393.846123)scale(0.1 -0.1)">
       <defs>
        <path id="DejaVuSans-31" d="M 794 531 
L 1825 531 
L 1825 4091 
L 703 3866 
L 703 4441 
L 1819 4666 
L 2450 4666 
L 2450 531 
L 3481 531 
L 3481 0 
L 794 0 
L 794 531 
z
" transform="scale(0.015625)"/>
       </defs>
       <use xlink:href="#DejaVuSans-2212"/>
       <use xlink:href="#DejaVuSans-31" x="83.789062"/>
       <use xlink:href="#DejaVuSans-35" x="147.412109"/>
       <use xlink:href="#DejaVuSans-30" x="211.035156"/>
      </g>
     </g>
    </g>
    <g id="ytick_5">
     <g id="line2d_13">
      <g>
       <use xlink:href="#m50d4e7c7c6" x="172.8" y="312.36761" style="stroke: #000000; stroke-width: 0.8"/>
      </g>
     </g>
     <g id="text_13">
      <!-- −100 -->
      <g transform="translate(138.332812 316.166829)scale(0.1 -0.1)">
       <use xlink:href="#DejaVuSans-2212"/>
       <use xlink:href="#DejaVuSans-31" x="83.789062"/>
       <use xlink:href="#DejaVuSans-30" x="147.412109"/>
       <use xlink:href="#DejaVuSans-30" x="211.035156"/>
      </g>
     </g>
    </g>
    <g id="ytick_6">
     <g id="line2d_14">
      <g>
       <use xlink:href="#m50d4e7c7c6" x="172.8" y="234.688316" style="stroke: #000000; stroke-width: 0.8"/>
      </g>
     </g>
     <g id="text_14">
      <!-- −50 -->
      <g transform="translate(144.695312 238.487534)scale(0.1 -0.1)">
       <use xlink:href="#DejaVuSans-2212"/>
       <use xlink:href="#DejaVuSans-35" x="83.789062"/>
       <use xlink:href="#DejaVuSans-30" x="147.412109"/>
      </g>
     </g>
    </g>
    <g id="ytick_7">
     <g id="line2d_15">
      <g>
       <use xlink:href="#m50d4e7c7c6" x="172.8" y="157.009021" style="stroke: #000000; stroke-width: 0.8"/>
      </g>
     </g>
     <g id="text_15">
      <!-- 0 -->
      <g transform="translate(159.4375 160.80824)scale(0.1 -0.1)">
       <use xlink:href="#DejaVuSans-30"/>
      </g>
     </g>
    </g>
    <g id="text_16">
     <!-- Stack Depth -->
     <g transform="translate(132.253125 423.349719)rotate(-90)scale(0.1 -0.1)">
      <defs>
       <path id="DejaVuSans-53" d="M 3425 4513 
L 3425 3897 
Q 3066 4069 2747 4153 
Q 2428 4238 2131 4238 
Q 1616 4238 1336 4038 
Q 1056 3838 1056 3469 
Q 1056 3159 1242 3001 
Q 1428 2844 1947 2747 
L 2328 2669 
Q 3034 2534 3370 2195 
Q 3706 1856 3706 1288 
Q 3706 609 3251 259 
Q 2797 -91 1919 -91 
Q 1588 -91 1214 -16 
Q 841 59 441 206 
L 441 856 
Q 825 641 1194 531 
Q 1563 422 1919 422 
Q 2459 422 2753 634 
Q 3047 847 3047 1241 
Q 3047 1584 2836 1778 
Q 2625 1972 2144 2069 
L 1759 2144 
Q 1053 2284 737 2584 
Q 422 2884 422 3419 
Q 422 4038 858 4394 
Q 1294 4750 2059 4750 
Q 2388 4750 2728 4690 
Q 3069 4631 3425 4513 
z
" transform="scale(0.015625)"/>
       <path id="DejaVuSans-74" d="M 1172 4494 
L 1172 3500 
L 2356 3500 
L 2356 3053 
L 1172 3053 
L 1172 1153 
Q 1172 725 1289 603 
Q 1406 481 1766 481 
L 2356 481 
L 2356 0 
L 1766 0 
Q 1100 0 847 248 
Q 594 497 594 1153 
L 594 3053 
L 172 3053 
L 172 3500 
L 594 3500 
L 594 4494 
L 1172 4494 
z
" transform="scale(0.015625)"/>
       <path id="DejaVuSans-61" d="M 2194 1759 
Q 1497 1759 1228 1600 
Q 959 1441 959 1056 
Q 959 750 1161 570 
Q 1363 391 1709 391 
Q 2188 391 2477 730 
Q 2766 1069 2766 1631 
L 2766 1759 
L 2194 1759 
z
M 3341 1997 
L 3341 0 
L 2766 0 
L 2766 531 
Q 2569 213 2275 61 
Q 1981 -91 1556 -91 
Q 1019 -91 701 211 
Q 384 513 384 1019 
Q 384 1609 779 1909 
Q 1175 2209 1959 2209 
L 2766 2209 
L 2766 2266 
Q 2766 2663 2505 2880 
Q 2244 3097 1772 3097 
Q 1472 3097 1187 3025 
Q 903 2953 641 2809 
L 641 3341 
Q 956 3463 1253 3523 
Q 1550 3584 1831 3584 
Q 2591 3584 2966 3190 
Q 3341 2797 3341 1997 
z
" transform="scale(0.015625)"/>
       <path id="DejaVuSans-63" d="M 3122 3366 
L 3122 2828 
Q 2878 2963 2633 3030 
Q 2388 3097 2138 3097 
Q 1578 3097 1268 2742 
Q 959 2388 959 1747 
Q 959 1106 1268 751 
Q 1578 397 2138 397 
Q 2388 397 2633 464 
Q 2878 531 3122 666 
L 3122 134 
Q 2881 22 2623 -34 
Q 2366 -91 2075 -91 
Q 1284 -91 818 406 
Q 353 903 353 1747 
Q 353 2603 823 3093 
Q 1294 3584 2113 3584 
Q 2378 3584 2631 3529 
Q 2884 3475 3122 3366 
z
" transform="scale(0.015625)"/>
       <path id="DejaVuSans-6b" d="M 581 4863 
L 1159 4863 
L 1159 1991 
L 2875 3500 
L 3609 3500 
L 1753 1863 
L 3688 0 
L 2938 0 
L 1159 1709 
L 1159 0 
L 581 0 
L 581 4863 
z
" transform="scale(0.015625)"/>
       <path id="DejaVuSans-20" transform="scale(0.015625)"/>
       <path id="DejaVuSans-65" d="M 3597 1894 
L 3597 1613 
L 953 1613 
Q 991 1019 1311 708 
Q 1631 397 2203 397 
Q 2534 397 2845 478 
Q 3156 559 3463 722 
L 3463 178 
Q 3153 47 2828 -22 
Q 2503 -91 2169 -91 
Q 1331 -91 842 396 
Q 353 884 353 1716 
Q 353 2575 817 3079 
Q 1281 3584 2069 3584 
Q 2775 3584 3186 3129 
Q 3597 2675 3597 1894 
z
M 3022 2063 
Q 3016 2534 2758 2815 
Q 2500 3097 2075 3097 
Q 1594 3097 1305 2825 
Q 1016 2553 972 2059 
L 3022 2063 
z
" transform="scale(0.015625)"/>
       <path id="DejaVuSans-70" d="M 1159 525 
L 1159 -1331 
L 581 -1331 
L 581 3500 
L 1159 3500 
L 1159 2969 
Q 1341 3281 1617 3432 
Q 1894 3584 2278 3584 
Q 2916 3584 3314 3078 
Q 3713 2572 3713 1747 
Q 3713 922 3314 415 
Q 2916 -91 2278 -91 
Q 1894 -91 1617 61 
Q 1341 213 1159 525 
z
M 3116 1747 
Q 3116 2381 2855 2742 
Q 2594 3103 2138 3103 
Q 1681 3103 1420 2742 
Q 1159 2381 1159 1747 
Q 1159 1113 1420 752 
Q 1681 391 2138 391 
Q 2594 391 2855 752 
Q 3116 1113 3116 1747 
z
" transform="scale(0.015625)"/>
       <path id="DejaVuSans-68" d="M 3513 2113 
L 3513 0 
L 2938 0 
L 2938 2094 
Q 2938 2591 2744 2837 
Q 2550 3084 2163 3084 
Q 1697 3084 1428 2787 
Q 1159 2491 1159 1978 
L 1159 0 
L 581 0 
L 581 4863 
L 1159 4863 
L 1159 2956 
Q 1366 3272 1645 3428 
Q 1925 3584 2291 3584 
Q 2894 3584 3203 3211 
Q 3513 2838 3513 2113 
z
" transform="scale(0.015625)"/>
      </defs>
      <use xlink:href="#DejaVuSans-53"/>
      <use xlink:href="#DejaVuSans-74" x="63.476562"/>
      <use xlink:href="#DejaVuSans-61" x="102.685547"/>
      <use xlink:href="#DejaVuSans-63" x="163.964844"/>
      <use xlink:href="#DejaVuSans-6b" x="218.945312"/>
      <use xlink:href="#DejaVuSans-20" x="276.855469"/>
      <use xlink:href="#DejaVuSans-44" x="308.642578"/>
      <use xlink:href="#DejaVuSans-65" x="385.644531"/>
      <use xlink:href="#DejaVuSans-70" x="447.167969"/>
      <use xlink:href="#DejaVuSans-74" x="510.644531"/>
      <use xlink:href="#DejaVuSans-68" x="549.853516"/>
     </g>
    </g>
   </g>
   <g id="patch_41">
    <path d="M 172.8 692.064 
L 172.8 93.312 
" style="fill: none; stroke: #000000; stroke-width: 0.8; stroke-linejoin: miter; stroke-linecap: square"/>
   </g>
   <g id="patch_42">
    <path d="M 1244.16 692.064 
L 1244.16 93.312 
" style="fill: none; stroke: #000000; stroke-width: 0.8; stroke-linejoin: miter; stroke-linecap: square"/>
   </g>
   <g id="patch_43">
    <path d="M 172.8 692.064 
L 1244.16 692.064 
" style="fill: none; stroke: #000000; stroke-width: 0.8; stroke-linejoin: miter; stroke-linecap: square"/>
   </g>
   <g id="patch_44">
    <path d="M 172.8 93.312 
L 1244.16 93.312 
" style="fill: none; stroke: #000000; stroke-width: 0.8; stroke-linejoin: miter; stroke-linecap: square"/>
   </g>
   <g id="text_17">
    <g id="patch_45">
     <path d="M 224.888144 199.571029 
L 318.001926 199.571029 
L 318.001926 164.161761 
L 224.888144 164.161761 
z
" style="fill: #ffffff; opacity: 0.5; stroke: #000000; stroke-linejoin: miter"/>
    </g>
    <!-- __aeabi_idiv0:0 -->
    <g transform="translate(239.602308 174.48966)scale(0.0833 -0.0833)">
     <defs>
      <path id="DejaVuSans-5f" d="M 3263 -1063 
L 3263 -1509 
L -63 -1509 
L -63 -1063 
L 3263 -1063 
z
" transform="scale(0.015625)"/>
      <path id="DejaVuSans-62" d="M 3116 1747 
Q 3116 2381 2855 2742 
Q 2594 3103 2138 3103 
Q 1681 3103 1420 2742 
Q 1159 2381 1159 1747 
Q 1159 1113 1420 752 
Q 1681 391 2138 391 
Q 2594 391 2855 752 
Q 3116 1113 3116 1747 
z
M 1159 2969 
Q 1341 3281 1617 3432 
Q 1894 3584 2278 3584 
Q 2916 3584 3314 3078 
Q 3713 2572 3713 1747 
Q 3713 922 3314 415 
Q 2916 -91 2278 -91 
Q 1894 -91 1617 61 
Q 1341 213 1159 525 
L 1159 0 
L 581 0 
L 581 4863 
L 1159 4863 
L 1159 2969 
z
" transform="scale(0.015625)"/>
      <path id="DejaVuSans-69" d="M 603 3500 
L 1178 3500 
L 1178 0 
L 603 0 
L 603 3500 
z
M 603 4863 
L 1178 4863 
L 1178 4134 
L 603 4134 
L 603 4863 
z
" transform="scale(0.015625)"/>
      <path id="DejaVuSans-64" d="M 2906 2969 
L 2906 4863 
L 3481 4863 
L 3481 0 
L 2906 0 
L 2906 525 
Q 2725 213 2448 61 
Q 2172 -91 1784 -91 
Q 1150 -91 751 415 
Q 353 922 353 1747 
Q 353 2572 751 3078 
Q 1150 3584 1784 3584 
Q 2172 3584 2448 3432 
Q 2725 3281 2906 2969 
z
M 947 1747 
Q 947 1113 1208 752 
Q 1469 391 1925 391 
Q 2381 391 2643 752 
Q 2906 1113 2906 1747 
Q 2906 2381 2643 2742 
Q 2381 3103 1925 3103 
Q 1469 3103 1208 2742 
Q 947 2381 947 1747 
z
" transform="scale(0.015625)"/>
      <path id="DejaVuSans-76" d="M 191 3500 
L 800 3500 
L 1894 563 
L 2988 3500 
L 3597 3500 
L 2284 0 
L 1503 0 
L 191 3500 
z
" transform="scale(0.015625)"/>
      <path id="DejaVuSans-3a" d="M 750 794 
L 1409 794 
L 1409 0 
L 750 0 
L 750 794 
z
M 750 3309 
L 1409 3309 
L 1409 2516 
L 750 2516 
L 750 3309 
z
" transform="scale(0.015625)"/>
     </defs>
     <use xlink:href="#DejaVuSans-5f"/>
     <use xlink:href="#DejaVuSans-5f" x="50"/>
     <use xlink:href="#DejaVuSans-61" x="100"/>
     <use xlink:href="#DejaVuSans-65" x="161.279297"/>
     <use xlink:href="#DejaVuSans-61" x="222.802734"/>
     <use xlink:href="#DejaVuSans-62" x="284.082031"/>
     <use xlink:href="#DejaVuSans-69" x="347.558594"/>
     <use xlink:href="#DejaVuSans-5f" x="375.341797"/>
     <use xlink:href="#DejaVuSans-69" x="425.341797"/>
     <use xlink:href="#DejaVuSans-64" x="453.125"/>
     <use xlink:href="#DejaVuSans-69" x="516.601562"/>
     <use xlink:href="#DejaVuSans-76" x="544.384766"/>
     <use xlink:href="#DejaVuSans-30" x="603.564453"/>
     <use xlink:href="#DejaVuSans-3a" x="667.1875"/>
     <use xlink:href="#DejaVuSans-30" x="700.878906"/>
    </g>
    <!--  __aeabi_uidiv:0 -->
    <g transform="translate(238.518107 184.049116)scale(0.0833 -0.0833)">
     <defs>
      <path id="DejaVuSans-75" d="M 544 1381 
L 544 3500 
L 1119 3500 
L 1119 1403 
Q 1119 906 1312 657 
Q 1506 409 1894 409 
Q 2359 409 2629 706 
Q 2900 1003 2900 1516 
L 2900 3500 
L 3475 3500 
L 3475 0 
L 2900 0 
L 2900 538 
Q 2691 219 2414 64 
Q 2138 -91 1772 -91 
Q 1169 -91 856 284 
Q 544 659 544 1381 
z
M 1991 3584 
L 1991 3584 
z
" transform="scale(0.015625)"/>
     </defs>
     <use xlink:href="#DejaVuSans-20"/>
     <use xlink:href="#DejaVuSans-5f" x="31.787109"/>
     <use xlink:href="#DejaVuSans-5f" x="81.787109"/>
     <use xlink:href="#DejaVuSans-61" x="131.787109"/>
     <use xlink:href="#DejaVuSans-65" x="193.066406"/>
     <use xlink:href="#DejaVuSans-61" x="254.589844"/>
     <use xlink:href="#DejaVuSans-62" x="315.869141"/>
     <use xlink:href="#DejaVuSans-69" x="379.345703"/>
     <use xlink:href="#DejaVuSans-5f" x="407.128906"/>
     <use xlink:href="#DejaVuSans-75" x="457.128906"/>
     <use xlink:href="#DejaVuSans-69" x="520.507812"/>
     <use xlink:href="#DejaVuSans-64" x="548.291016"/>
     <use xlink:href="#DejaVuSans-69" x="611.767578"/>
     <use xlink:href="#DejaVuSans-76" x="639.550781"/>
     <use xlink:href="#DejaVuSans-3a" x="693.230469"/>
     <use xlink:href="#DejaVuSans-30" x="726.921875"/>
    </g>
    <!-- _LitobSmallNoMb:32 -->
    <g transform="translate(228.886544 193.608572)scale(0.0833 -0.0833)">
     <defs>
      <path id="DejaVuSans-4c" d="M 628 4666 
L 1259 4666 
L 1259 531 
L 3531 531 
L 3531 0 
L 628 0 
L 628 4666 
z
" transform="scale(0.015625)"/>
      <path id="DejaVuSans-6f" d="M 1959 3097 
Q 1497 3097 1228 2736 
Q 959 2375 959 1747 
Q 959 1119 1226 758 
Q 1494 397 1959 397 
Q 2419 397 2687 759 
Q 2956 1122 2956 1747 
Q 2956 2369 2687 2733 
Q 2419 3097 1959 3097 
z
M 1959 3584 
Q 2709 3584 3137 3096 
Q 3566 2609 3566 1747 
Q 3566 888 3137 398 
Q 2709 -91 1959 -91 
Q 1206 -91 779 398 
Q 353 888 353 1747 
Q 353 2609 779 3096 
Q 1206 3584 1959 3584 
z
" transform="scale(0.015625)"/>
      <path id="DejaVuSans-6d" d="M 3328 2828 
Q 3544 3216 3844 3400 
Q 4144 3584 4550 3584 
Q 5097 3584 5394 3201 
Q 5691 2819 5691 2113 
L 5691 0 
L 5113 0 
L 5113 2094 
Q 5113 2597 4934 2840 
Q 4756 3084 4391 3084 
Q 3944 3084 3684 2787 
Q 3425 2491 3425 1978 
L 3425 0 
L 2847 0 
L 2847 2094 
Q 2847 2600 2669 2842 
Q 2491 3084 2119 3084 
Q 1678 3084 1418 2786 
Q 1159 2488 1159 1978 
L 1159 0 
L 581 0 
L 581 3500 
L 1159 3500 
L 1159 2956 
Q 1356 3278 1631 3431 
Q 1906 3584 2284 3584 
Q 2666 3584 2933 3390 
Q 3200 3197 3328 2828 
z
" transform="scale(0.015625)"/>
      <path id="DejaVuSans-6c" d="M 603 4863 
L 1178 4863 
L 1178 0 
L 603 0 
L 603 4863 
z
" transform="scale(0.015625)"/>
      <path id="DejaVuSans-4e" d="M 628 4666 
L 1478 4666 
L 3547 763 
L 3547 4666 
L 4159 4666 
L 4159 0 
L 3309 0 
L 1241 3903 
L 1241 0 
L 628 0 
L 628 4666 
z
" transform="scale(0.015625)"/>
      <path id="DejaVuSans-4d" d="M 628 4666 
L 1569 4666 
L 2759 1491 
L 3956 4666 
L 4897 4666 
L 4897 0 
L 4281 0 
L 4281 4097 
L 3078 897 
L 2444 897 
L 1241 4097 
L 1241 0 
L 628 0 
L 628 4666 
z
" transform="scale(0.015625)"/>
     </defs>
     <use xlink:href="#DejaVuSans-5f"/>
     <use xlink:href="#DejaVuSans-4c" x="50"/>
     <use xlink:href="#DejaVuSans-69" x="105.712891"/>
     <use xlink:href="#DejaVuSans-74" x="133.496094"/>
     <use xlink:href="#DejaVuSans-6f" x="172.705078"/>
     <use xlink:href="#DejaVuSans-62" x="233.886719"/>
     <use xlink:href="#DejaVuSans-53" x="297.363281"/>
     <use xlink:href="#DejaVuSans-6d" x="360.839844"/>
     <use xlink:href="#DejaVuSans-61" x="458.251953"/>
     <use xlink:href="#DejaVuSans-6c" x="519.53125"/>
     <use xlink:href="#DejaVuSans-6c" x="547.314453"/>
     <use xlink:href="#DejaVuSans-4e" x="575.097656"/>
     <use xlink:href="#DejaVuSans-6f" x="649.902344"/>
     <use xlink:href="#DejaVuSans-4d" x="711.083984"/>
     <use xlink:href="#DejaVuSans-62" x="797.363281"/>
     <use xlink:href="#DejaVuSans-3a" x="860.839844"/>
     <use xlink:href="#DejaVuSans-33" x="894.53125"/>
     <use xlink:href="#DejaVuSans-32" x="958.154297"/>
    </g>
   </g>
   <g id="text_18">
    <g id="patch_46">
     <path d="M 221.494971 301.869757 
L 321.395099 301.869757 
L 321.395099 285.579401 
L 221.494971 285.579401 
z
" style="fill: #ffffff; opacity: 0.5; stroke: #000000; stroke-linejoin: miter"/>
    </g>
    <!-- _PrintfSmallNoMb:112 -->
    <g transform="translate(225.493371 295.907299)scale(0.0833 -0.0833)">
     <defs>
      <path id="DejaVuSans-50" d="M 1259 4147 
L 1259 2394 
L 2053 2394 
Q 2494 2394 2734 2622 
Q 2975 2850 2975 3272 
Q 2975 3691 2734 3919 
Q 2494 4147 2053 4147 
L 1259 4147 
z
M 628 4666 
L 2053 4666 
Q 2838 4666 3239 4311 
Q 3641 3956 3641 3272 
Q 3641 2581 3239 2228 
Q 2838 1875 2053 1875 
L 1259 1875 
L 1259 0 
L 628 0 
L 628 4666 
z
" transform="scale(0.015625)"/>
      <path id="DejaVuSans-72" d="M 2631 2963 
Q 2534 3019 2420 3045 
Q 2306 3072 2169 3072 
Q 1681 3072 1420 2755 
Q 1159 2438 1159 1844 
L 1159 0 
L 581 0 
L 581 3500 
L 1159 3500 
L 1159 2956 
Q 1341 3275 1631 3429 
Q 1922 3584 2338 3584 
Q 2397 3584 2469 3576 
Q 2541 3569 2628 3553 
L 2631 2963 
z
" transform="scale(0.015625)"/>
      <path id="DejaVuSans-6e" d="M 3513 2113 
L 3513 0 
L 2938 0 
L 2938 2094 
Q 2938 2591 2744 2837 
Q 2550 3084 2163 3084 
Q 1697 3084 1428 2787 
Q 1159 2491 1159 1978 
L 1159 0 
L 581 0 
L 581 3500 
L 1159 3500 
L 1159 2956 
Q 1366 3272 1645 3428 
Q 1925 3584 2291 3584 
Q 2894 3584 3203 3211 
Q 3513 2838 3513 2113 
z
" transform="scale(0.015625)"/>
      <path id="DejaVuSans-66" d="M 2375 4863 
L 2375 4384 
L 1825 4384 
Q 1516 4384 1395 4259 
Q 1275 4134 1275 3809 
L 1275 3500 
L 2222 3500 
L 2222 3053 
L 1275 3053 
L 1275 0 
L 697 0 
L 697 3053 
L 147 3053 
L 147 3500 
L 697 3500 
L 697 3744 
Q 697 4328 969 4595 
Q 1241 4863 1831 4863 
L 2375 4863 
z
" transform="scale(0.015625)"/>
     </defs>
     <use xlink:href="#DejaVuSans-5f"/>
     <use xlink:href="#DejaVuSans-50" x="50"/>
     <use xlink:href="#DejaVuSans-72" x="108.552734"/>
     <use xlink:href="#DejaVuSans-69" x="149.666016"/>
     <use xlink:href="#DejaVuSans-6e" x="177.449219"/>
     <use xlink:href="#DejaVuSans-74" x="240.828125"/>
     <use xlink:href="#DejaVuSans-66" x="280.037109"/>
     <use xlink:href="#DejaVuSans-53" x="315.242188"/>
     <use xlink:href="#DejaVuSans-6d" x="378.71875"/>
     <use xlink:href="#DejaVuSans-61" x="476.130859"/>
     <use xlink:href="#DejaVuSans-6c" x="537.410156"/>
     <use xlink:href="#DejaVuSans-6c" x="565.193359"/>
     <use xlink:href="#DejaVuSans-4e" x="592.976562"/>
     <use xlink:href="#DejaVuSans-6f" x="667.78125"/>
     <use xlink:href="#DejaVuSans-4d" x="728.962891"/>
     <use xlink:href="#DejaVuSans-62" x="815.242188"/>
     <use xlink:href="#DejaVuSans-3a" x="878.71875"/>
     <use xlink:href="#DejaVuSans-31" x="912.410156"/>
     <use xlink:href="#DejaVuSans-31" x="976.033203"/>
     <use xlink:href="#DejaVuSans-32" x="1039.65625"/>
    </g>
   </g>
   <g id="text_19">
    <g id="patch_47">
     <path d="M 244.833288 413.612102 
L 298.056782 413.612102 
L 298.056782 397.553424 
L 244.833288 397.553424 
z
" style="fill: #ffffff; opacity: 0.5; stroke: #000000; stroke-linejoin: miter"/>
    </g>
    <!-- snprintf:32 -->
    <g transform="translate(248.831688 407.881322)scale(0.0833 -0.0833)">
     <defs>
      <path id="DejaVuSans-73" d="M 2834 3397 
L 2834 2853 
Q 2591 2978 2328 3040 
Q 2066 3103 1784 3103 
Q 1356 3103 1142 2972 
Q 928 2841 928 2578 
Q 928 2378 1081 2264 
Q 1234 2150 1697 2047 
L 1894 2003 
Q 2506 1872 2764 1633 
Q 3022 1394 3022 966 
Q 3022 478 2636 193 
Q 2250 -91 1575 -91 
Q 1294 -91 989 -36 
Q 684 19 347 128 
L 347 722 
Q 666 556 975 473 
Q 1284 391 1588 391 
Q 1994 391 2212 530 
Q 2431 669 2431 922 
Q 2431 1156 2273 1281 
Q 2116 1406 1581 1522 
L 1381 1569 
Q 847 1681 609 1914 
Q 372 2147 372 2553 
Q 372 3047 722 3315 
Q 1072 3584 1716 3584 
Q 2034 3584 2315 3537 
Q 2597 3491 2834 3397 
z
" transform="scale(0.015625)"/>
     </defs>
     <use xlink:href="#DejaVuSans-73"/>
     <use xlink:href="#DejaVuSans-6e" x="52.099609"/>
     <use xlink:href="#DejaVuSans-70" x="115.478516"/>
     <use xlink:href="#DejaVuSans-72" x="178.955078"/>
     <use xlink:href="#DejaVuSans-69" x="220.068359"/>
     <use xlink:href="#DejaVuSans-6e" x="247.851562"/>
     <use xlink:href="#DejaVuSans-74" x="311.230469"/>
     <use xlink:href="#DejaVuSans-66" x="350.439453"/>
     <use xlink:href="#DejaVuSans-3a" x="382.019531"/>
     <use xlink:href="#DejaVuSans-33" x="415.710938"/>
     <use xlink:href="#DejaVuSans-32" x="479.333984"/>
    </g>
   </g>
   <g id="text_20">
    <g id="patch_48">
     <path d="M 231.956279 513.041599 
L 310.93379 513.041599 
L 310.93379 496.98292 
L 231.956279 496.98292 
z
" style="fill: #ffffff; opacity: 0.5; stroke: #000000; stroke-linejoin: miter"/>
    </g>
    <!-- prvSpeedCalc:96 -->
    <g transform="translate(235.954679 507.310819)scale(0.0833 -0.0833)">
     <defs>
      <path id="DejaVuSans-39" d="M 703 97 
L 703 672 
Q 941 559 1184 500 
Q 1428 441 1663 441 
Q 2288 441 2617 861 
Q 2947 1281 2994 2138 
Q 2813 1869 2534 1725 
Q 2256 1581 1919 1581 
Q 1219 1581 811 2004 
Q 403 2428 403 3163 
Q 403 3881 828 4315 
Q 1253 4750 1959 4750 
Q 2769 4750 3195 4129 
Q 3622 3509 3622 2328 
Q 3622 1225 3098 567 
Q 2575 -91 1691 -91 
Q 1453 -91 1209 -44 
Q 966 3 703 97 
z
M 1959 2075 
Q 2384 2075 2632 2365 
Q 2881 2656 2881 3163 
Q 2881 3666 2632 3958 
Q 2384 4250 1959 4250 
Q 1534 4250 1286 3958 
Q 1038 3666 1038 3163 
Q 1038 2656 1286 2365 
Q 1534 2075 1959 2075 
z
" transform="scale(0.015625)"/>
      <path id="DejaVuSans-36" d="M 2113 2584 
Q 1688 2584 1439 2293 
Q 1191 2003 1191 1497 
Q 1191 994 1439 701 
Q 1688 409 2113 409 
Q 2538 409 2786 701 
Q 3034 994 3034 1497 
Q 3034 2003 2786 2293 
Q 2538 2584 2113 2584 
z
M 3366 4563 
L 3366 3988 
Q 3128 4100 2886 4159 
Q 2644 4219 2406 4219 
Q 1781 4219 1451 3797 
Q 1122 3375 1075 2522 
Q 1259 2794 1537 2939 
Q 1816 3084 2150 3084 
Q 2853 3084 3261 2657 
Q 3669 2231 3669 1497 
Q 3669 778 3244 343 
Q 2819 -91 2113 -91 
Q 1303 -91 875 529 
Q 447 1150 447 2328 
Q 447 3434 972 4092 
Q 1497 4750 2381 4750 
Q 2619 4750 2861 4703 
Q 3103 4656 3366 4563 
z
" transform="scale(0.015625)"/>
     </defs>
     <use xlink:href="#DejaVuSans-70"/>
     <use xlink:href="#DejaVuSans-72" x="63.476562"/>
     <use xlink:href="#DejaVuSans-76" x="104.589844"/>
     <use xlink:href="#DejaVuSans-53" x="163.769531"/>
     <use xlink:href="#DejaVuSans-70" x="227.246094"/>
     <use xlink:href="#DejaVuSans-65" x="290.722656"/>
     <use xlink:href="#DejaVuSans-65" x="352.246094"/>
     <use xlink:href="#DejaVuSans-64" x="413.769531"/>
     <use xlink:href="#DejaVuSans-43" x="477.246094"/>
     <use xlink:href="#DejaVuSans-61" x="547.070312"/>
     <use xlink:href="#DejaVuSans-6c" x="608.349609"/>
     <use xlink:href="#DejaVuSans-63" x="636.132812"/>
     <use xlink:href="#DejaVuSans-3a" x="691.113281"/>
     <use xlink:href="#DejaVuSans-39" x="724.804688"/>
     <use xlink:href="#DejaVuSans-36" x="788.427734"/>
    </g>
   </g>
   <g id="text_21">
    <g id="patch_49">
     <path d="M 225.779715 606.256752 
L 317.110355 606.256752 
L 317.110355 590.198073 
L 225.779715 590.198073 
z
" style="fill: #ffffff; opacity: 0.5; stroke: #000000; stroke-linejoin: miter"/>
    </g>
    <!-- prvSpeedUpdate:24 -->
    <g transform="translate(229.778115 600.525972)scale(0.0833 -0.0833)">
     <defs>
      <path id="DejaVuSans-55" d="M 556 4666 
L 1191 4666 
L 1191 1831 
Q 1191 1081 1462 751 
Q 1734 422 2344 422 
Q 2950 422 3222 751 
Q 3494 1081 3494 1831 
L 3494 4666 
L 4128 4666 
L 4128 1753 
Q 4128 841 3676 375 
Q 3225 -91 2344 -91 
Q 1459 -91 1007 375 
Q 556 841 556 1753 
L 556 4666 
z
" transform="scale(0.015625)"/>
      <path id="DejaVuSans-34" d="M 2419 4116 
L 825 1625 
L 2419 1625 
L 2419 4116 
z
M 2253 4666 
L 3047 4666 
L 3047 1625 
L 3713 1625 
L 3713 1100 
L 3047 1100 
L 3047 0 
L 2419 0 
L 2419 1100 
L 313 1100 
L 313 1709 
L 2253 4666 
z
" transform="scale(0.015625)"/>
     </defs>
     <use xlink:href="#DejaVuSans-70"/>
     <use xlink:href="#DejaVuSans-72" x="63.476562"/>
     <use xlink:href="#DejaVuSans-76" x="104.589844"/>
     <use xlink:href="#DejaVuSans-53" x="163.769531"/>
     <use xlink:href="#DejaVuSans-70" x="227.246094"/>
     <use xlink:href="#DejaVuSans-65" x="290.722656"/>
     <use xlink:href="#DejaVuSans-65" x="352.246094"/>
     <use xlink:href="#DejaVuSans-64" x="413.769531"/>
     <use xlink:href="#DejaVuSans-55" x="477.246094"/>
     <use xlink:href="#DejaVuSans-70" x="550.439453"/>
     <use xlink:href="#DejaVuSans-64" x="613.916016"/>
     <use xlink:href="#DejaVuSans-61" x="677.392578"/>
     <use xlink:href="#DejaVuSans-74" x="738.671875"/>
     <use xlink:href="#DejaVuSans-65" x="777.880859"/>
     <use xlink:href="#DejaVuSans-3a" x="839.404297"/>
     <use xlink:href="#DejaVuSans-32" x="873.095703"/>
     <use xlink:href="#DejaVuSans-34" x="936.71875"/>
    </g>
   </g>
   <g id="text_22">
    <g id="patch_50">
     <path d="M 236.22996 649.757156 
L 306.66011 649.757156 
L 306.66011 633.698478 
L 236.22996 633.698478 
z
" style="fill: #ffffff; opacity: 0.5; stroke: #000000; stroke-linejoin: miter"/>
    </g>
    <!-- vSpeedTask:32 -->
    <g transform="translate(240.22836 644.026377)scale(0.0833 -0.0833)">
     <defs>
      <path id="DejaVuSans-54" d="M -19 4666 
L 3928 4666 
L 3928 4134 
L 2272 4134 
L 2272 0 
L 1638 0 
L 1638 4134 
L -19 4134 
L -19 4666 
z
" transform="scale(0.015625)"/>
     </defs>
     <use xlink:href="#DejaVuSans-76"/>
     <use xlink:href="#DejaVuSans-53" x="59.179688"/>
     <use xlink:href="#DejaVuSans-70" x="122.65625"/>
     <use xlink:href="#DejaVuSans-65" x="186.132812"/>
     <use xlink:href="#DejaVuSans-65" x="247.65625"/>
     <use xlink:href="#DejaVuSans-64" x="309.179688"/>
     <use xlink:href="#DejaVuSans-54" x="372.65625"/>
     <use xlink:href="#DejaVuSans-61" x="417.240234"/>
     <use xlink:href="#DejaVuSans-73" x="478.519531"/>
     <use xlink:href="#DejaVuSans-6b" x="530.619141"/>
     <use xlink:href="#DejaVuSans-3a" x="588.529297"/>
     <use xlink:href="#DejaVuSans-33" x="622.220703"/>
     <use xlink:href="#DejaVuSans-32" x="685.84375"/>
    </g>
   </g>
   <g id="text_23">
    <g id="patch_51">
     <path d="M 324.180225 168.145532 
L 468.444111 168.145532 
L 468.444111 152.086854 
L 324.180225 152.086854 
z
" style="fill: #ffffff; opacity: 0.5; stroke: #000000; stroke-linejoin: miter"/>
    </g>
    <!-- prvResetNextTaskUnblockTime:4 -->
    <g transform="translate(328.178625 162.414752)scale(0.0833 -0.0833)">
     <defs>
      <path id="DejaVuSans-52" d="M 2841 2188 
Q 3044 2119 3236 1894 
Q 3428 1669 3622 1275 
L 4263 0 
L 3584 0 
L 2988 1197 
Q 2756 1666 2539 1819 
Q 2322 1972 1947 1972 
L 1259 1972 
L 1259 0 
L 628 0 
L 628 4666 
L 2053 4666 
Q 2853 4666 3247 4331 
Q 3641 3997 3641 3322 
Q 3641 2881 3436 2590 
Q 3231 2300 2841 2188 
z
M 1259 4147 
L 1259 2491 
L 2053 2491 
Q 2509 2491 2742 2702 
Q 2975 2913 2975 3322 
Q 2975 3731 2742 3939 
Q 2509 4147 2053 4147 
L 1259 4147 
z
" transform="scale(0.015625)"/>
      <path id="DejaVuSans-78" d="M 3513 3500 
L 2247 1797 
L 3578 0 
L 2900 0 
L 1881 1375 
L 863 0 
L 184 0 
L 1544 1831 
L 300 3500 
L 978 3500 
L 1906 2253 
L 2834 3500 
L 3513 3500 
z
" transform="scale(0.015625)"/>
     </defs>
     <use xlink:href="#DejaVuSans-70"/>
     <use xlink:href="#DejaVuSans-72" x="63.476562"/>
     <use xlink:href="#DejaVuSans-76" x="104.589844"/>
     <use xlink:href="#DejaVuSans-52" x="163.769531"/>
     <use xlink:href="#DejaVuSans-65" x="228.751953"/>
     <use xlink:href="#DejaVuSans-73" x="290.275391"/>
     <use xlink:href="#DejaVuSans-65" x="342.375"/>
     <use xlink:href="#DejaVuSans-74" x="403.898438"/>
     <use xlink:href="#DejaVuSans-4e" x="443.107422"/>
     <use xlink:href="#DejaVuSans-65" x="517.912109"/>
     <use xlink:href="#DejaVuSans-78" x="577.685547"/>
     <use xlink:href="#DejaVuSans-74" x="636.865234"/>
     <use xlink:href="#DejaVuSans-54" x="676.074219"/>
     <use xlink:href="#DejaVuSans-61" x="720.658203"/>
     <use xlink:href="#DejaVuSans-73" x="781.9375"/>
     <use xlink:href="#DejaVuSans-6b" x="834.037109"/>
     <use xlink:href="#DejaVuSans-55" x="891.947266"/>
     <use xlink:href="#DejaVuSans-6e" x="965.140625"/>
     <use xlink:href="#DejaVuSans-62" x="1028.519531"/>
     <use xlink:href="#DejaVuSans-6c" x="1091.996094"/>
     <use xlink:href="#DejaVuSans-6f" x="1119.779297"/>
     <use xlink:href="#DejaVuSans-63" x="1180.960938"/>
     <use xlink:href="#DejaVuSans-6b" x="1235.941406"/>
     <use xlink:href="#DejaVuSans-54" x="1293.851562"/>
     <use xlink:href="#DejaVuSans-69" x="1351.810547"/>
     <use xlink:href="#DejaVuSans-6d" x="1379.59375"/>
     <use xlink:href="#DejaVuSans-65" x="1477.005859"/>
     <use xlink:href="#DejaVuSans-3a" x="1538.529297"/>
     <use xlink:href="#DejaVuSans-34" x="1572.220703"/>
    </g>
   </g>
   <g id="text_24">
    <g id="patch_52">
     <path d="M 344.650549 189.895734 
L 447.973787 189.895734 
L 447.973787 173.837056 
L 344.650549 173.837056 
z
" style="fill: #ffffff; opacity: 0.5; stroke: #000000; stroke-linejoin: miter"/>
    </g>
    <!-- xTaskIncrementTick:24 -->
    <g transform="translate(348.648949 184.164955)scale(0.0833 -0.0833)">
     <defs>
      <path id="DejaVuSans-49" d="M 628 4666 
L 1259 4666 
L 1259 0 
L 628 0 
L 628 4666 
z
" transform="scale(0.015625)"/>
     </defs>
     <use xlink:href="#DejaVuSans-78"/>
     <use xlink:href="#DejaVuSans-54" x="59.179688"/>
     <use xlink:href="#DejaVuSans-61" x="103.763672"/>
     <use xlink:href="#DejaVuSans-73" x="165.042969"/>
     <use xlink:href="#DejaVuSans-6b" x="217.142578"/>
     <use xlink:href="#DejaVuSans-49" x="275.052734"/>
     <use xlink:href="#DejaVuSans-6e" x="304.544922"/>
     <use xlink:href="#DejaVuSans-63" x="367.923828"/>
     <use xlink:href="#DejaVuSans-72" x="422.904297"/>
     <use xlink:href="#DejaVuSans-65" x="461.767578"/>
     <use xlink:href="#DejaVuSans-6d" x="523.291016"/>
     <use xlink:href="#DejaVuSans-65" x="620.703125"/>
     <use xlink:href="#DejaVuSans-6e" x="682.226562"/>
     <use xlink:href="#DejaVuSans-74" x="745.605469"/>
     <use xlink:href="#DejaVuSans-54" x="784.814453"/>
     <use xlink:href="#DejaVuSans-69" x="842.773438"/>
     <use xlink:href="#DejaVuSans-63" x="870.556641"/>
     <use xlink:href="#DejaVuSans-6b" x="925.537109"/>
     <use xlink:href="#DejaVuSans-3a" x="983.447266"/>
     <use xlink:href="#DejaVuSans-32" x="1017.138672"/>
     <use xlink:href="#DejaVuSans-34" x="1080.761719"/>
    </g>
   </g>
   <g id="text_25">
    <g id="patch_53">
     <path d="M 352.293324 227.181796 
L 440.331012 227.181796 
L 440.331012 211.123118 
L 352.293324 211.123118 
z
" style="fill: #ffffff; opacity: 0.5; stroke: #000000; stroke-linejoin: miter"/>
    </g>
    <!-- xTaskResumeAll:24 -->
    <g transform="translate(356.291724 221.451016)scale(0.0833 -0.0833)">
     <use xlink:href="#DejaVuSans-78"/>
     <use xlink:href="#DejaVuSans-54" x="59.179688"/>
     <use xlink:href="#DejaVuSans-61" x="103.763672"/>
     <use xlink:href="#DejaVuSans-73" x="165.042969"/>
     <use xlink:href="#DejaVuSans-6b" x="217.142578"/>
     <use xlink:href="#DejaVuSans-52" x="275.052734"/>
     <use xlink:href="#DejaVuSans-65" x="340.035156"/>
     <use xlink:href="#DejaVuSans-73" x="401.558594"/>
     <use xlink:href="#DejaVuSans-75" x="453.658203"/>
     <use xlink:href="#DejaVuSans-6d" x="517.037109"/>
     <use xlink:href="#DejaVuSans-65" x="614.449219"/>
     <use xlink:href="#DejaVuSans-41" x="675.972656"/>
     <use xlink:href="#DejaVuSans-6c" x="744.380859"/>
     <use xlink:href="#DejaVuSans-6c" x="772.164062"/>
     <use xlink:href="#DejaVuSans-3a" x="799.947266"/>
     <use xlink:href="#DejaVuSans-32" x="833.638672"/>
     <use xlink:href="#DejaVuSans-34" x="897.261719"/>
    </g>
   </g>
   <g id="text_26">
    <g id="patch_54">
     <path d="M 342.819901 276.896544 
L 449.804434 276.896544 
L 449.804434 260.837866 
L 342.819901 260.837866 
z
" style="fill: #ffffff; opacity: 0.5; stroke: #000000; stroke-linejoin: miter"/>
    </g>
    <!-- xQueueGenericSend:40 -->
    <g transform="translate(346.818301 271.165764)scale(0.0833 -0.0833)">
     <defs>
      <path id="DejaVuSans-51" d="M 2522 4238 
Q 1834 4238 1429 3725 
Q 1025 3213 1025 2328 
Q 1025 1447 1429 934 
Q 1834 422 2522 422 
Q 3209 422 3611 934 
Q 4013 1447 4013 2328 
Q 4013 3213 3611 3725 
Q 3209 4238 2522 4238 
z
M 3406 84 
L 4238 -825 
L 3475 -825 
L 2784 -78 
Q 2681 -84 2626 -87 
Q 2572 -91 2522 -91 
Q 1538 -91 948 567 
Q 359 1225 359 2328 
Q 359 3434 948 4092 
Q 1538 4750 2522 4750 
Q 3503 4750 4090 4092 
Q 4678 3434 4678 2328 
Q 4678 1516 4351 937 
Q 4025 359 3406 84 
z
" transform="scale(0.015625)"/>
     </defs>
     <use xlink:href="#DejaVuSans-78"/>
     <use xlink:href="#DejaVuSans-51" x="59.179688"/>
     <use xlink:href="#DejaVuSans-75" x="137.890625"/>
     <use xlink:href="#DejaVuSans-65" x="201.269531"/>
     <use xlink:href="#DejaVuSans-75" x="262.792969"/>
     <use xlink:href="#DejaVuSans-65" x="326.171875"/>
     <use xlink:href="#DejaVuSans-47" x="387.695312"/>
     <use xlink:href="#DejaVuSans-65" x="465.185547"/>
     <use xlink:href="#DejaVuSans-6e" x="526.708984"/>
     <use xlink:href="#DejaVuSans-65" x="590.087891"/>
     <use xlink:href="#DejaVuSans-72" x="651.611328"/>
     <use xlink:href="#DejaVuSans-69" x="692.724609"/>
     <use xlink:href="#DejaVuSans-63" x="720.507812"/>
     <use xlink:href="#DejaVuSans-53" x="775.488281"/>
     <use xlink:href="#DejaVuSans-65" x="838.964844"/>
     <use xlink:href="#DejaVuSans-6e" x="900.488281"/>
     <use xlink:href="#DejaVuSans-64" x="963.867188"/>
     <use xlink:href="#DejaVuSans-3a" x="1027.34375"/>
     <use xlink:href="#DejaVuSans-34" x="1061.035156"/>
     <use xlink:href="#DejaVuSans-30" x="1124.658203"/>
    </g>
   </g>
   <g id="text_27">
    <g id="patch_55">
     <path d="M 354.909465 332.825636 
L 437.714871 332.825636 
L 437.714871 316.766958 
L 354.909465 316.766958 
z
" style="fill: #ffffff; opacity: 0.5; stroke: #000000; stroke-linejoin: miter"/>
    </g>
    <!-- xSerialPutChar:32 -->
    <g transform="translate(358.907865 327.094856)scale(0.0833 -0.0833)">
     <use xlink:href="#DejaVuSans-78"/>
     <use xlink:href="#DejaVuSans-53" x="59.179688"/>
     <use xlink:href="#DejaVuSans-65" x="122.65625"/>
     <use xlink:href="#DejaVuSans-72" x="184.179688"/>
     <use xlink:href="#DejaVuSans-69" x="225.292969"/>
     <use xlink:href="#DejaVuSans-61" x="253.076172"/>
     <use xlink:href="#DejaVuSans-6c" x="314.355469"/>
     <use xlink:href="#DejaVuSans-50" x="342.138672"/>
     <use xlink:href="#DejaVuSans-75" x="400.691406"/>
     <use xlink:href="#DejaVuSans-74" x="464.070312"/>
     <use xlink:href="#DejaVuSans-43" x="503.279297"/>
     <use xlink:href="#DejaVuSans-68" x="573.103516"/>
     <use xlink:href="#DejaVuSans-61" x="636.482422"/>
     <use xlink:href="#DejaVuSans-72" x="697.761719"/>
     <use xlink:href="#DejaVuSans-3a" x="737.125"/>
     <use xlink:href="#DejaVuSans-33" x="770.816406"/>
     <use xlink:href="#DejaVuSans-32" x="834.439453"/>
    </g>
   </g>
   <g id="text_28">
    <g id="patch_56">
     <path d="M 352.219135 376.326041 
L 440.405201 376.326041 
L 440.405201 360.267363 
L 352.219135 360.267363 
z
" style="fill: #ffffff; opacity: 0.5; stroke: #000000; stroke-linejoin: miter"/>
    </g>
    <!-- vSerialPutString:24 -->
    <g transform="translate(356.217535 370.595261)scale(0.0833 -0.0833)">
     <defs>
      <path id="DejaVuSans-67" d="M 2906 1791 
Q 2906 2416 2648 2759 
Q 2391 3103 1925 3103 
Q 1463 3103 1205 2759 
Q 947 2416 947 1791 
Q 947 1169 1205 825 
Q 1463 481 1925 481 
Q 2391 481 2648 825 
Q 2906 1169 2906 1791 
z
M 3481 434 
Q 3481 -459 3084 -895 
Q 2688 -1331 1869 -1331 
Q 1566 -1331 1297 -1286 
Q 1028 -1241 775 -1147 
L 775 -588 
Q 1028 -725 1275 -790 
Q 1522 -856 1778 -856 
Q 2344 -856 2625 -561 
Q 2906 -266 2906 331 
L 2906 616 
Q 2728 306 2450 153 
Q 2172 0 1784 0 
Q 1141 0 747 490 
Q 353 981 353 1791 
Q 353 2603 747 3093 
Q 1141 3584 1784 3584 
Q 2172 3584 2450 3431 
Q 2728 3278 2906 2969 
L 2906 3500 
L 3481 3500 
L 3481 434 
z
" transform="scale(0.015625)"/>
     </defs>
     <use xlink:href="#DejaVuSans-76"/>
     <use xlink:href="#DejaVuSans-53" x="59.179688"/>
     <use xlink:href="#DejaVuSans-65" x="122.65625"/>
     <use xlink:href="#DejaVuSans-72" x="184.179688"/>
     <use xlink:href="#DejaVuSans-69" x="225.292969"/>
     <use xlink:href="#DejaVuSans-61" x="253.076172"/>
     <use xlink:href="#DejaVuSans-6c" x="314.355469"/>
     <use xlink:href="#DejaVuSans-50" x="342.138672"/>
     <use xlink:href="#DejaVuSans-75" x="400.691406"/>
     <use xlink:href="#DejaVuSans-74" x="464.070312"/>
     <use xlink:href="#DejaVuSans-53" x="503.279297"/>
     <use xlink:href="#DejaVuSans-74" x="566.755859"/>
     <use xlink:href="#DejaVuSans-72" x="605.964844"/>
     <use xlink:href="#DejaVuSans-69" x="647.078125"/>
     <use xlink:href="#DejaVuSans-6e" x="674.861328"/>
     <use xlink:href="#DejaVuSans-67" x="738.240234"/>
     <use xlink:href="#DejaVuSans-3a" x="801.716797"/>
     <use xlink:href="#DejaVuSans-32" x="835.408203"/>
     <use xlink:href="#DejaVuSans-34" x="899.03125"/>
    </g>
   </g>
   <g id="text_29">
    <g id="patch_57">
     <path d="M 350.922779 413.612102 
L 441.701557 413.612102 
L 441.701557 397.553424 
L 350.922779 397.553424 
z
" style="fill: #ffffff; opacity: 0.5; stroke: #000000; stroke-linejoin: miter"/>
    </g>
    <!-- vStartSpeedTask:24 -->
    <g transform="translate(354.921179 407.881322)scale(0.0833 -0.0833)">
     <use xlink:href="#DejaVuSans-76"/>
     <use xlink:href="#DejaVuSans-53" x="59.179688"/>
     <use xlink:href="#DejaVuSans-74" x="122.65625"/>
     <use xlink:href="#DejaVuSans-61" x="161.865234"/>
     <use xlink:href="#DejaVuSans-72" x="223.144531"/>
     <use xlink:href="#DejaVuSans-74" x="264.257812"/>
     <use xlink:href="#DejaVuSans-53" x="303.466797"/>
     <use xlink:href="#DejaVuSans-70" x="366.943359"/>
     <use xlink:href="#DejaVuSans-65" x="430.419922"/>
     <use xlink:href="#DejaVuSans-65" x="491.943359"/>
     <use xlink:href="#DejaVuSans-64" x="553.466797"/>
     <use xlink:href="#DejaVuSans-54" x="616.943359"/>
     <use xlink:href="#DejaVuSans-61" x="661.527344"/>
     <use xlink:href="#DejaVuSans-73" x="722.806641"/>
     <use xlink:href="#DejaVuSans-6b" x="774.90625"/>
     <use xlink:href="#DejaVuSans-3a" x="832.816406"/>
     <use xlink:href="#DejaVuSans-32" x="866.507812"/>
     <use xlink:href="#DejaVuSans-34" x="930.130859"/>
    </g>
   </g>
   <g id="text_30">
    <g id="patch_58">
     <path d="M 377.85471 438.469476 
L 414.769626 438.469476 
L 414.769626 422.410798 
L 377.85471 422.410798 
z
" style="fill: #ffffff; opacity: 0.5; stroke: #000000; stroke-linejoin: miter"/>
    </g>
    <!-- main:8 -->
    <g transform="translate(381.85311 432.738696)scale(0.0833 -0.0833)">
     <defs>
      <path id="DejaVuSans-38" d="M 2034 2216 
Q 1584 2216 1326 1975 
Q 1069 1734 1069 1313 
Q 1069 891 1326 650 
Q 1584 409 2034 409 
Q 2484 409 2743 651 
Q 3003 894 3003 1313 
Q 3003 1734 2745 1975 
Q 2488 2216 2034 2216 
z
M 1403 2484 
Q 997 2584 770 2862 
Q 544 3141 544 3541 
Q 544 4100 942 4425 
Q 1341 4750 2034 4750 
Q 2731 4750 3128 4425 
Q 3525 4100 3525 3541 
Q 3525 3141 3298 2862 
Q 3072 2584 2669 2484 
Q 3125 2378 3379 2068 
Q 3634 1759 3634 1313 
Q 3634 634 3220 271 
Q 2806 -91 2034 -91 
Q 1263 -91 848 271 
Q 434 634 434 1313 
Q 434 1759 690 2068 
Q 947 2378 1403 2484 
z
M 1172 3481 
Q 1172 3119 1398 2916 
Q 1625 2713 2034 2713 
Q 2441 2713 2670 2916 
Q 2900 3119 2900 3481 
Q 2900 3844 2670 4047 
Q 2441 4250 2034 4250 
Q 1625 4250 1398 4047 
Q 1172 3844 1172 3481 
z
" transform="scale(0.015625)"/>
     </defs>
     <use xlink:href="#DejaVuSans-6d"/>
     <use xlink:href="#DejaVuSans-61" x="97.412109"/>
     <use xlink:href="#DejaVuSans-69" x="158.691406"/>
     <use xlink:href="#DejaVuSans-6e" x="186.474609"/>
     <use xlink:href="#DejaVuSans-3a" x="249.853516"/>
     <use xlink:href="#DejaVuSans-38" x="283.544922"/>
    </g>
   </g>
   <g id="text_31">
    <g id="patch_59">
     <path d="M 371.399611 444.799659 
L 421.224725 444.799659 
L 421.224725 428.509302 
L 371.399611 428.509302 
z
" style="fill: #ffffff; opacity: 0.5; stroke: #000000; stroke-linejoin: miter"/>
    </g>
    <!-- __cmain:0 -->
    <g transform="translate(375.398011 438.837201)scale(0.0833 -0.0833)">
     <use xlink:href="#DejaVuSans-5f"/>
     <use xlink:href="#DejaVuSans-5f" x="50"/>
     <use xlink:href="#DejaVuSans-63" x="100"/>
     <use xlink:href="#DejaVuSans-6d" x="154.980469"/>
     <use xlink:href="#DejaVuSans-61" x="252.392578"/>
     <use xlink:href="#DejaVuSans-69" x="313.671875"/>
     <use xlink:href="#DejaVuSans-6e" x="341.455078"/>
     <use xlink:href="#DejaVuSans-3a" x="404.833984"/>
     <use xlink:href="#DejaVuSans-30" x="438.525391"/>
    </g>
   </g>
   <g id="text_32">
    <g id="patch_60">
     <path d="M 474.685536 171.368543 
L 567.673066 171.368543 
L 567.673066 155.078187 
L 474.685536 155.078187 
z
" style="fill: #ffffff; opacity: 0.5; stroke: #000000; stroke-linejoin: miter"/>
    </g>
    <!-- __aeabi_memcpy8:8 -->
    <g transform="translate(478.683936 165.406085)scale(0.0833 -0.0833)">
     <defs>
      <path id="DejaVuSans-79" d="M 2059 -325 
Q 1816 -950 1584 -1140 
Q 1353 -1331 966 -1331 
L 506 -1331 
L 506 -850 
L 844 -850 
Q 1081 -850 1212 -737 
Q 1344 -625 1503 -206 
L 1606 56 
L 191 3500 
L 800 3500 
L 1894 763 
L 2988 3500 
L 3597 3500 
L 2059 -325 
z
" transform="scale(0.015625)"/>
     </defs>
     <use xlink:href="#DejaVuSans-5f"/>
     <use xlink:href="#DejaVuSans-5f" x="50"/>
     <use xlink:href="#DejaVuSans-61" x="100"/>
     <use xlink:href="#DejaVuSans-65" x="161.279297"/>
     <use xlink:href="#DejaVuSans-61" x="222.802734"/>
     <use xlink:href="#DejaVuSans-62" x="284.082031"/>
     <use xlink:href="#DejaVuSans-69" x="347.558594"/>
     <use xlink:href="#DejaVuSans-5f" x="375.341797"/>
     <use xlink:href="#DejaVuSans-6d" x="425.341797"/>
     <use xlink:href="#DejaVuSans-65" x="522.753906"/>
     <use xlink:href="#DejaVuSans-6d" x="584.277344"/>
     <use xlink:href="#DejaVuSans-63" x="681.689453"/>
     <use xlink:href="#DejaVuSans-70" x="736.669922"/>
     <use xlink:href="#DejaVuSans-79" x="800.146484"/>
     <use xlink:href="#DejaVuSans-38" x="859.326172"/>
     <use xlink:href="#DejaVuSans-3a" x="922.949219"/>
     <use xlink:href="#DejaVuSans-38" x="956.640625"/>
    </g>
   </g>
   <g id="text_33">
    <g id="patch_61">
     <path d="M 465.078052 213.318493 
L 577.280549 213.318493 
L 577.280549 187.468681 
L 465.078052 187.468681 
z
" style="fill: #ffffff; opacity: 0.5; stroke: #000000; stroke-linejoin: miter"/>
    </g>
    <!-- __aeabi_memcpy:0 -->
    <g transform="translate(481.63588 198.028257)scale(0.0833 -0.0833)">
     <use xlink:href="#DejaVuSans-5f"/>
     <use xlink:href="#DejaVuSans-5f" x="50"/>
     <use xlink:href="#DejaVuSans-61" x="100"/>
     <use xlink:href="#DejaVuSans-65" x="161.279297"/>
     <use xlink:href="#DejaVuSans-61" x="222.802734"/>
     <use xlink:href="#DejaVuSans-62" x="284.082031"/>
     <use xlink:href="#DejaVuSans-69" x="347.558594"/>
     <use xlink:href="#DejaVuSans-5f" x="375.341797"/>
     <use xlink:href="#DejaVuSans-6d" x="425.341797"/>
     <use xlink:href="#DejaVuSans-65" x="522.753906"/>
     <use xlink:href="#DejaVuSans-6d" x="584.277344"/>
     <use xlink:href="#DejaVuSans-63" x="681.689453"/>
     <use xlink:href="#DejaVuSans-70" x="736.669922"/>
     <use xlink:href="#DejaVuSans-79" x="800.146484"/>
     <use xlink:href="#DejaVuSans-3a" x="852.076172"/>
     <use xlink:href="#DejaVuSans-30" x="885.767578"/>
    </g>
    <!-- prvCopyDataToQueue:40 -->
    <g transform="translate(469.076452 207.587713)scale(0.0833 -0.0833)">
     <use xlink:href="#DejaVuSans-70"/>
     <use xlink:href="#DejaVuSans-72" x="63.476562"/>
     <use xlink:href="#DejaVuSans-76" x="104.589844"/>
     <use xlink:href="#DejaVuSans-43" x="163.769531"/>
     <use xlink:href="#DejaVuSans-6f" x="233.59375"/>
     <use xlink:href="#DejaVuSans-70" x="294.775391"/>
     <use xlink:href="#DejaVuSans-79" x="358.251953"/>
     <use xlink:href="#DejaVuSans-44" x="417.431641"/>
     <use xlink:href="#DejaVuSans-61" x="494.433594"/>
     <use xlink:href="#DejaVuSans-74" x="555.712891"/>
     <use xlink:href="#DejaVuSans-61" x="594.921875"/>
     <use xlink:href="#DejaVuSans-54" x="656.201172"/>
     <use xlink:href="#DejaVuSans-6f" x="700.285156"/>
     <use xlink:href="#DejaVuSans-51" x="761.466797"/>
     <use xlink:href="#DejaVuSans-75" x="840.177734"/>
     <use xlink:href="#DejaVuSans-65" x="903.556641"/>
     <use xlink:href="#DejaVuSans-75" x="965.080078"/>
     <use xlink:href="#DejaVuSans-65" x="1028.458984"/>
     <use xlink:href="#DejaVuSans-3a" x="1089.982422"/>
     <use xlink:href="#DejaVuSans-34" x="1123.673828"/>
     <use xlink:href="#DejaVuSans-30" x="1187.296875"/>
    </g>
   </g>
   <g id="text_34">
    <g id="patch_62">
     <path d="M 450.732881 270.682201 
L 591.62572 270.682201 
L 591.62572 254.623522 
L 450.732881 254.623522 
z
" style="fill: #ffffff; opacity: 0.5; stroke: #000000; stroke-linejoin: miter"/>
    </g>
    <!-- xQueueGenericSendFromISR:40 -->
    <g transform="translate(454.731281 264.951421)scale(0.0833 -0.0833)">
     <use xlink:href="#DejaVuSans-78"/>
     <use xlink:href="#DejaVuSans-51" x="59.179688"/>
     <use xlink:href="#DejaVuSans-75" x="137.890625"/>
     <use xlink:href="#DejaVuSans-65" x="201.269531"/>
     <use xlink:href="#DejaVuSans-75" x="262.792969"/>
     <use xlink:href="#DejaVuSans-65" x="326.171875"/>
     <use xlink:href="#DejaVuSans-47" x="387.695312"/>
     <use xlink:href="#DejaVuSans-65" x="465.185547"/>
     <use xlink:href="#DejaVuSans-6e" x="526.708984"/>
     <use xlink:href="#DejaVuSans-65" x="590.087891"/>
     <use xlink:href="#DejaVuSans-72" x="651.611328"/>
     <use xlink:href="#DejaVuSans-69" x="692.724609"/>
     <use xlink:href="#DejaVuSans-63" x="720.507812"/>
     <use xlink:href="#DejaVuSans-53" x="775.488281"/>
     <use xlink:href="#DejaVuSans-65" x="838.964844"/>
     <use xlink:href="#DejaVuSans-6e" x="900.488281"/>
     <use xlink:href="#DejaVuSans-64" x="963.867188"/>
     <use xlink:href="#DejaVuSans-46" x="1027.34375"/>
     <use xlink:href="#DejaVuSans-72" x="1077.613281"/>
     <use xlink:href="#DejaVuSans-6f" x="1116.476562"/>
     <use xlink:href="#DejaVuSans-6d" x="1177.658203"/>
     <use xlink:href="#DejaVuSans-49" x="1275.070312"/>
     <use xlink:href="#DejaVuSans-53" x="1304.5625"/>
     <use xlink:href="#DejaVuSans-52" x="1368.039062"/>
     <use xlink:href="#DejaVuSans-3a" x="1434.396484"/>
     <use xlink:href="#DejaVuSans-34" x="1468.087891"/>
     <use xlink:href="#DejaVuSans-30" x="1531.710938"/>
    </g>
   </g>
   <g id="text_35">
    <g id="patch_63">
     <path d="M 486.823257 326.611292 
L 555.535344 326.611292 
L 555.535344 310.552614 
L 486.823257 310.552614 
z
" style="fill: #ffffff; opacity: 0.5; stroke: #000000; stroke-linejoin: miter"/>
    </g>
    <!-- vTimer1ISR:32 -->
    <g transform="translate(490.821657 320.880513)scale(0.0833 -0.0833)">
     <use xlink:href="#DejaVuSans-76"/>
     <use xlink:href="#DejaVuSans-54" x="59.179688"/>
     <use xlink:href="#DejaVuSans-69" x="117.138672"/>
     <use xlink:href="#DejaVuSans-6d" x="144.921875"/>
     <use xlink:href="#DejaVuSans-65" x="242.333984"/>
     <use xlink:href="#DejaVuSans-72" x="303.857422"/>
     <use xlink:href="#DejaVuSans-31" x="344.970703"/>
     <use xlink:href="#DejaVuSans-49" x="408.59375"/>
     <use xlink:href="#DejaVuSans-53" x="438.085938"/>
     <use xlink:href="#DejaVuSans-52" x="501.5625"/>
     <use xlink:href="#DejaVuSans-3a" x="567.919922"/>
     <use xlink:href="#DejaVuSans-33" x="601.611328"/>
     <use xlink:href="#DejaVuSans-32" x="665.234375"/>
    </g>
   </g>
   <g id="text_36">
    <g id="patch_64">
     <path d="M 573.914491 168.145532 
L 718.178377 168.145532 
L 718.178377 152.086854 
L 573.914491 152.086854 
z
" style="fill: #ffffff; opacity: 0.5; stroke: #000000; stroke-linejoin: miter"/>
    </g>
    <!-- prvResetNextTaskUnblockTime:4 -->
    <g transform="translate(577.912891 162.414752)scale(0.0833 -0.0833)">
     <use xlink:href="#DejaVuSans-70"/>
     <use xlink:href="#DejaVuSans-72" x="63.476562"/>
     <use xlink:href="#DejaVuSans-76" x="104.589844"/>
     <use xlink:href="#DejaVuSans-52" x="163.769531"/>
     <use xlink:href="#DejaVuSans-65" x="228.751953"/>
     <use xlink:href="#DejaVuSans-73" x="290.275391"/>
     <use xlink:href="#DejaVuSans-65" x="342.375"/>
     <use xlink:href="#DejaVuSans-74" x="403.898438"/>
     <use xlink:href="#DejaVuSans-4e" x="443.107422"/>
     <use xlink:href="#DejaVuSans-65" x="517.912109"/>
     <use xlink:href="#DejaVuSans-78" x="577.685547"/>
     <use xlink:href="#DejaVuSans-74" x="636.865234"/>
     <use xlink:href="#DejaVuSans-54" x="676.074219"/>
     <use xlink:href="#DejaVuSans-61" x="720.658203"/>
     <use xlink:href="#DejaVuSans-73" x="781.9375"/>
     <use xlink:href="#DejaVuSans-6b" x="834.037109"/>
     <use xlink:href="#DejaVuSans-55" x="891.947266"/>
     <use xlink:href="#DejaVuSans-6e" x="965.140625"/>
     <use xlink:href="#DejaVuSans-62" x="1028.519531"/>
     <use xlink:href="#DejaVuSans-6c" x="1091.996094"/>
     <use xlink:href="#DejaVuSans-6f" x="1119.779297"/>
     <use xlink:href="#DejaVuSans-63" x="1180.960938"/>
     <use xlink:href="#DejaVuSans-6b" x="1235.941406"/>
     <use xlink:href="#DejaVuSans-54" x="1293.851562"/>
     <use xlink:href="#DejaVuSans-69" x="1351.810547"/>
     <use xlink:href="#DejaVuSans-6d" x="1379.59375"/>
     <use xlink:href="#DejaVuSans-65" x="1477.005859"/>
     <use xlink:href="#DejaVuSans-3a" x="1538.529297"/>
     <use xlink:href="#DejaVuSans-34" x="1572.220703"/>
    </g>
   </g>
   <g id="text_37">
    <g id="patch_65">
     <path d="M 594.384815 189.895734 
L 697.708052 189.895734 
L 697.708052 173.837056 
L 594.384815 173.837056 
z
" style="fill: #ffffff; opacity: 0.5; stroke: #000000; stroke-linejoin: miter"/>
    </g>
    <!-- xTaskIncrementTick:24 -->
    <g transform="translate(598.383215 184.164955)scale(0.0833 -0.0833)">
     <use xlink:href="#DejaVuSans-78"/>
     <use xlink:href="#DejaVuSans-54" x="59.179688"/>
     <use xlink:href="#DejaVuSans-61" x="103.763672"/>
     <use xlink:href="#DejaVuSans-73" x="165.042969"/>
     <use xlink:href="#DejaVuSans-6b" x="217.142578"/>
     <use xlink:href="#DejaVuSans-49" x="275.052734"/>
     <use xlink:href="#DejaVuSans-6e" x="304.544922"/>
     <use xlink:href="#DejaVuSans-63" x="367.923828"/>
     <use xlink:href="#DejaVuSans-72" x="422.904297"/>
     <use xlink:href="#DejaVuSans-65" x="461.767578"/>
     <use xlink:href="#DejaVuSans-6d" x="523.291016"/>
     <use xlink:href="#DejaVuSans-65" x="620.703125"/>
     <use xlink:href="#DejaVuSans-6e" x="682.226562"/>
     <use xlink:href="#DejaVuSans-74" x="745.605469"/>
     <use xlink:href="#DejaVuSans-54" x="784.814453"/>
     <use xlink:href="#DejaVuSans-69" x="842.773438"/>
     <use xlink:href="#DejaVuSans-63" x="870.556641"/>
     <use xlink:href="#DejaVuSans-6b" x="925.537109"/>
     <use xlink:href="#DejaVuSans-3a" x="983.447266"/>
     <use xlink:href="#DejaVuSans-32" x="1017.138672"/>
     <use xlink:href="#DejaVuSans-34" x="1080.761719"/>
    </g>
   </g>
   <g id="text_38">
    <g id="patch_66">
     <path d="M 602.02759 227.181796 
L 690.065277 227.181796 
L 690.065277 211.123118 
L 602.02759 211.123118 
z
" style="fill: #ffffff; opacity: 0.5; stroke: #000000; stroke-linejoin: miter"/>
    </g>
    <!-- xTaskResumeAll:24 -->
    <g transform="translate(606.02599 221.451016)scale(0.0833 -0.0833)">
     <use xlink:href="#DejaVuSans-78"/>
     <use xlink:href="#DejaVuSans-54" x="59.179688"/>
     <use xlink:href="#DejaVuSans-61" x="103.763672"/>
     <use xlink:href="#DejaVuSans-73" x="165.042969"/>
     <use xlink:href="#DejaVuSans-6b" x="217.142578"/>
     <use xlink:href="#DejaVuSans-52" x="275.052734"/>
     <use xlink:href="#DejaVuSans-65" x="340.035156"/>
     <use xlink:href="#DejaVuSans-73" x="401.558594"/>
     <use xlink:href="#DejaVuSans-75" x="453.658203"/>
     <use xlink:href="#DejaVuSans-6d" x="517.037109"/>
     <use xlink:href="#DejaVuSans-65" x="614.449219"/>
     <use xlink:href="#DejaVuSans-41" x="675.972656"/>
     <use xlink:href="#DejaVuSans-6c" x="744.380859"/>
     <use xlink:href="#DejaVuSans-6c" x="772.164062"/>
     <use xlink:href="#DejaVuSans-3a" x="799.947266"/>
     <use xlink:href="#DejaVuSans-32" x="833.638672"/>
     <use xlink:href="#DejaVuSans-34" x="897.261719"/>
    </g>
   </g>
   <g id="text_39">
    <g id="patch_67">
     <path d="M 592.554167 276.896544 
L 699.5387 276.896544 
L 699.5387 260.837866 
L 592.554167 260.837866 
z
" style="fill: #ffffff; opacity: 0.5; stroke: #000000; stroke-linejoin: miter"/>
    </g>
    <!-- xQueueGenericSend:40 -->
    <g transform="translate(596.552567 271.165764)scale(0.0833 -0.0833)">
     <use xlink:href="#DejaVuSans-78"/>
     <use xlink:href="#DejaVuSans-51" x="59.179688"/>
     <use xlink:href="#DejaVuSans-75" x="137.890625"/>
     <use xlink:href="#DejaVuSans-65" x="201.269531"/>
     <use xlink:href="#DejaVuSans-75" x="262.792969"/>
     <use xlink:href="#DejaVuSans-65" x="326.171875"/>
     <use xlink:href="#DejaVuSans-47" x="387.695312"/>
     <use xlink:href="#DejaVuSans-65" x="465.185547"/>
     <use xlink:href="#DejaVuSans-6e" x="526.708984"/>
     <use xlink:href="#DejaVuSans-65" x="590.087891"/>
     <use xlink:href="#DejaVuSans-72" x="651.611328"/>
     <use xlink:href="#DejaVuSans-69" x="692.724609"/>
     <use xlink:href="#DejaVuSans-63" x="720.507812"/>
     <use xlink:href="#DejaVuSans-53" x="775.488281"/>
     <use xlink:href="#DejaVuSans-65" x="838.964844"/>
     <use xlink:href="#DejaVuSans-6e" x="900.488281"/>
     <use xlink:href="#DejaVuSans-64" x="963.867188"/>
     <use xlink:href="#DejaVuSans-3a" x="1027.34375"/>
     <use xlink:href="#DejaVuSans-34" x="1061.035156"/>
     <use xlink:href="#DejaVuSans-30" x="1124.658203"/>
    </g>
   </g>
   <g id="text_40">
    <g id="patch_68">
     <path d="M 615.453207 326.611292 
L 676.63966 326.611292 
L 676.63966 310.552614 
L 615.453207 310.552614 
z
" style="fill: #ffffff; opacity: 0.5; stroke: #000000; stroke-linejoin: miter"/>
    </g>
    <!-- vLCDTask:24 -->
    <g transform="translate(619.451607 320.880513)scale(0.0833 -0.0833)">
     <use xlink:href="#DejaVuSans-76"/>
     <use xlink:href="#DejaVuSans-4c" x="59.179688"/>
     <use xlink:href="#DejaVuSans-43" x="114.892578"/>
     <use xlink:href="#DejaVuSans-44" x="184.716797"/>
     <use xlink:href="#DejaVuSans-54" x="261.71875"/>
     <use xlink:href="#DejaVuSans-61" x="306.302734"/>
     <use xlink:href="#DejaVuSans-73" x="367.582031"/>
     <use xlink:href="#DejaVuSans-6b" x="419.681641"/>
     <use xlink:href="#DejaVuSans-3a" x="477.591797"/>
     <use xlink:href="#DejaVuSans-32" x="511.283203"/>
     <use xlink:href="#DejaVuSans-34" x="574.90625"/>
    </g>
   </g>
   <g id="text_41">
    <g id="patch_69">
     <path d="M 724.419802 171.368543 
L 817.407331 171.368543 
L 817.407331 155.078187 
L 724.419802 155.078187 
z
" style="fill: #ffffff; opacity: 0.5; stroke: #000000; stroke-linejoin: miter"/>
    </g>
    <!-- __aeabi_memcpy8:8 -->
    <g transform="translate(728.418202 165.406085)scale(0.0833 -0.0833)">
     <use xlink:href="#DejaVuSans-5f"/>
     <use xlink:href="#DejaVuSans-5f" x="50"/>
     <use xlink:href="#DejaVuSans-61" x="100"/>
     <use xlink:href="#DejaVuSans-65" x="161.279297"/>
     <use xlink:href="#DejaVuSans-61" x="222.802734"/>
     <use xlink:href="#DejaVuSans-62" x="284.082031"/>
     <use xlink:href="#DejaVuSans-69" x="347.558594"/>
     <use xlink:href="#DejaVuSans-5f" x="375.341797"/>
     <use xlink:href="#DejaVuSans-6d" x="425.341797"/>
     <use xlink:href="#DejaVuSans-65" x="522.753906"/>
     <use xlink:href="#DejaVuSans-6d" x="584.277344"/>
     <use xlink:href="#DejaVuSans-63" x="681.689453"/>
     <use xlink:href="#DejaVuSans-70" x="736.669922"/>
     <use xlink:href="#DejaVuSans-79" x="800.146484"/>
     <use xlink:href="#DejaVuSans-38" x="859.326172"/>
     <use xlink:href="#DejaVuSans-3a" x="922.949219"/>
     <use xlink:href="#DejaVuSans-38" x="956.640625"/>
    </g>
   </g>
   <g id="text_42">
    <g id="patch_70">
     <path d="M 714.812318 213.318493 
L 827.014815 213.318493 
L 827.014815 187.468681 
L 714.812318 187.468681 
z
" style="fill: #ffffff; opacity: 0.5; stroke: #000000; stroke-linejoin: miter"/>
    </g>
    <!-- __aeabi_memcpy:0 -->
    <g transform="translate(731.370145 198.028257)scale(0.0833 -0.0833)">
     <use xlink:href="#DejaVuSans-5f"/>
     <use xlink:href="#DejaVuSans-5f" x="50"/>
     <use xlink:href="#DejaVuSans-61" x="100"/>
     <use xlink:href="#DejaVuSans-65" x="161.279297"/>
     <use xlink:href="#DejaVuSans-61" x="222.802734"/>
     <use xlink:href="#DejaVuSans-62" x="284.082031"/>
     <use xlink:href="#DejaVuSans-69" x="347.558594"/>
     <use xlink:href="#DejaVuSans-5f" x="375.341797"/>
     <use xlink:href="#DejaVuSans-6d" x="425.341797"/>
     <use xlink:href="#DejaVuSans-65" x="522.753906"/>
     <use xlink:href="#DejaVuSans-6d" x="584.277344"/>
     <use xlink:href="#DejaVuSans-63" x="681.689453"/>
     <use xlink:href="#DejaVuSans-70" x="736.669922"/>
     <use xlink:href="#DejaVuSans-79" x="800.146484"/>
     <use xlink:href="#DejaVuSans-3a" x="852.076172"/>
     <use xlink:href="#DejaVuSans-30" x="885.767578"/>
    </g>
    <!-- prvCopyDataToQueue:40 -->
    <g transform="translate(718.810718 207.587713)scale(0.0833 -0.0833)">
     <use xlink:href="#DejaVuSans-70"/>
     <use xlink:href="#DejaVuSans-72" x="63.476562"/>
     <use xlink:href="#DejaVuSans-76" x="104.589844"/>
     <use xlink:href="#DejaVuSans-43" x="163.769531"/>
     <use xlink:href="#DejaVuSans-6f" x="233.59375"/>
     <use xlink:href="#DejaVuSans-70" x="294.775391"/>
     <use xlink:href="#DejaVuSans-79" x="358.251953"/>
     <use xlink:href="#DejaVuSans-44" x="417.431641"/>
     <use xlink:href="#DejaVuSans-61" x="494.433594"/>
     <use xlink:href="#DejaVuSans-74" x="555.712891"/>
     <use xlink:href="#DejaVuSans-61" x="594.921875"/>
     <use xlink:href="#DejaVuSans-54" x="656.201172"/>
     <use xlink:href="#DejaVuSans-6f" x="700.285156"/>
     <use xlink:href="#DejaVuSans-51" x="761.466797"/>
     <use xlink:href="#DejaVuSans-75" x="840.177734"/>
     <use xlink:href="#DejaVuSans-65" x="903.556641"/>
     <use xlink:href="#DejaVuSans-75" x="965.080078"/>
     <use xlink:href="#DejaVuSans-65" x="1028.458984"/>
     <use xlink:href="#DejaVuSans-3a" x="1089.982422"/>
     <use xlink:href="#DejaVuSans-34" x="1123.673828"/>
     <use xlink:href="#DejaVuSans-30" x="1187.296875"/>
    </g>
   </g>
   <g id="text_43">
    <g id="patch_71">
     <path d="M 700.467147 270.682201 
L 841.359986 270.682201 
L 841.359986 254.623522 
L 700.467147 254.623522 
z
" style="fill: #ffffff; opacity: 0.5; stroke: #000000; stroke-linejoin: miter"/>
    </g>
    <!-- xQueueGenericSendFromISR:40 -->
    <g transform="translate(704.465547 264.951421)scale(0.0833 -0.0833)">
     <use xlink:href="#DejaVuSans-78"/>
     <use xlink:href="#DejaVuSans-51" x="59.179688"/>
     <use xlink:href="#DejaVuSans-75" x="137.890625"/>
     <use xlink:href="#DejaVuSans-65" x="201.269531"/>
     <use xlink:href="#DejaVuSans-75" x="262.792969"/>
     <use xlink:href="#DejaVuSans-65" x="326.171875"/>
     <use xlink:href="#DejaVuSans-47" x="387.695312"/>
     <use xlink:href="#DejaVuSans-65" x="465.185547"/>
     <use xlink:href="#DejaVuSans-6e" x="526.708984"/>
     <use xlink:href="#DejaVuSans-65" x="590.087891"/>
     <use xlink:href="#DejaVuSans-72" x="651.611328"/>
     <use xlink:href="#DejaVuSans-69" x="692.724609"/>
     <use xlink:href="#DejaVuSans-63" x="720.507812"/>
     <use xlink:href="#DejaVuSans-53" x="775.488281"/>
     <use xlink:href="#DejaVuSans-65" x="838.964844"/>
     <use xlink:href="#DejaVuSans-6e" x="900.488281"/>
     <use xlink:href="#DejaVuSans-64" x="963.867188"/>
     <use xlink:href="#DejaVuSans-46" x="1027.34375"/>
     <use xlink:href="#DejaVuSans-72" x="1077.613281"/>
     <use xlink:href="#DejaVuSans-6f" x="1116.476562"/>
     <use xlink:href="#DejaVuSans-6d" x="1177.658203"/>
     <use xlink:href="#DejaVuSans-49" x="1275.070312"/>
     <use xlink:href="#DejaVuSans-53" x="1304.5625"/>
     <use xlink:href="#DejaVuSans-52" x="1368.039062"/>
     <use xlink:href="#DejaVuSans-3a" x="1434.396484"/>
     <use xlink:href="#DejaVuSans-34" x="1468.087891"/>
     <use xlink:href="#DejaVuSans-30" x="1531.710938"/>
    </g>
   </g>
   <g id="text_44">
    <g id="patch_72">
     <path d="M 739.324645 314.182605 
L 802.502488 314.182605 
L 802.502488 298.123927 
L 739.324645 298.123927 
z
" style="fill: #ffffff; opacity: 0.5; stroke: #000000; stroke-linejoin: miter"/>
    </g>
    <!-- vSerialISR:16 -->
    <g transform="translate(743.323045 308.451826)scale(0.0833 -0.0833)">
     <use xlink:href="#DejaVuSans-76"/>
     <use xlink:href="#DejaVuSans-53" x="59.179688"/>
     <use xlink:href="#DejaVuSans-65" x="122.65625"/>
     <use xlink:href="#DejaVuSans-72" x="184.179688"/>
     <use xlink:href="#DejaVuSans-69" x="225.292969"/>
     <use xlink:href="#DejaVuSans-61" x="253.076172"/>
     <use xlink:href="#DejaVuSans-6c" x="314.355469"/>
     <use xlink:href="#DejaVuSans-49" x="342.138672"/>
     <use xlink:href="#DejaVuSans-53" x="371.630859"/>
     <use xlink:href="#DejaVuSans-52" x="435.107422"/>
     <use xlink:href="#DejaVuSans-3a" x="501.464844"/>
     <use xlink:href="#DejaVuSans-31" x="535.15625"/>
     <use xlink:href="#DejaVuSans-36" x="598.779297"/>
    </g>
   </g>
   <g id="text_45">
    <g id="patch_73">
     <path d="M 823.648756 168.145532 
L 967.912642 168.145532 
L 967.912642 152.086854 
L 823.648756 152.086854 
z
" style="fill: #ffffff; opacity: 0.5; stroke: #000000; stroke-linejoin: miter"/>
    </g>
    <!-- prvResetNextTaskUnblockTime:4 -->
    <g transform="translate(827.647156 162.414752)scale(0.0833 -0.0833)">
     <use xlink:href="#DejaVuSans-70"/>
     <use xlink:href="#DejaVuSans-72" x="63.476562"/>
     <use xlink:href="#DejaVuSans-76" x="104.589844"/>
     <use xlink:href="#DejaVuSans-52" x="163.769531"/>
     <use xlink:href="#DejaVuSans-65" x="228.751953"/>
     <use xlink:href="#DejaVuSans-73" x="290.275391"/>
     <use xlink:href="#DejaVuSans-65" x="342.375"/>
     <use xlink:href="#DejaVuSans-74" x="403.898438"/>
     <use xlink:href="#DejaVuSans-4e" x="443.107422"/>
     <use xlink:href="#DejaVuSans-65" x="517.912109"/>
     <use xlink:href="#DejaVuSans-78" x="577.685547"/>
     <use xlink:href="#DejaVuSans-74" x="636.865234"/>
     <use xlink:href="#DejaVuSans-54" x="676.074219"/>
     <use xlink:href="#DejaVuSans-61" x="720.658203"/>
     <use xlink:href="#DejaVuSans-73" x="781.9375"/>
     <use xlink:href="#DejaVuSans-6b" x="834.037109"/>
     <use xlink:href="#DejaVuSans-55" x="891.947266"/>
     <use xlink:href="#DejaVuSans-6e" x="965.140625"/>
     <use xlink:href="#DejaVuSans-62" x="1028.519531"/>
     <use xlink:href="#DejaVuSans-6c" x="1091.996094"/>
     <use xlink:href="#DejaVuSans-6f" x="1119.779297"/>
     <use xlink:href="#DejaVuSans-63" x="1180.960938"/>
     <use xlink:href="#DejaVuSans-6b" x="1235.941406"/>
     <use xlink:href="#DejaVuSans-54" x="1293.851562"/>
     <use xlink:href="#DejaVuSans-69" x="1351.810547"/>
     <use xlink:href="#DejaVuSans-6d" x="1379.59375"/>
     <use xlink:href="#DejaVuSans-65" x="1477.005859"/>
     <use xlink:href="#DejaVuSans-3a" x="1538.529297"/>
     <use xlink:href="#DejaVuSans-34" x="1572.220703"/>
    </g>
   </g>
   <g id="text_46">
    <g id="patch_74">
     <path d="M 844.119081 189.895734 
L 947.442318 189.895734 
L 947.442318 173.837056 
L 844.119081 173.837056 
z
" style="fill: #ffffff; opacity: 0.5; stroke: #000000; stroke-linejoin: miter"/>
    </g>
    <!-- xTaskIncrementTick:24 -->
    <g transform="translate(848.117481 184.164955)scale(0.0833 -0.0833)">
     <use xlink:href="#DejaVuSans-78"/>
     <use xlink:href="#DejaVuSans-54" x="59.179688"/>
     <use xlink:href="#DejaVuSans-61" x="103.763672"/>
     <use xlink:href="#DejaVuSans-73" x="165.042969"/>
     <use xlink:href="#DejaVuSans-6b" x="217.142578"/>
     <use xlink:href="#DejaVuSans-49" x="275.052734"/>
     <use xlink:href="#DejaVuSans-6e" x="304.544922"/>
     <use xlink:href="#DejaVuSans-63" x="367.923828"/>
     <use xlink:href="#DejaVuSans-72" x="422.904297"/>
     <use xlink:href="#DejaVuSans-65" x="461.767578"/>
     <use xlink:href="#DejaVuSans-6d" x="523.291016"/>
     <use xlink:href="#DejaVuSans-65" x="620.703125"/>
     <use xlink:href="#DejaVuSans-6e" x="682.226562"/>
     <use xlink:href="#DejaVuSans-74" x="745.605469"/>
     <use xlink:href="#DejaVuSans-54" x="784.814453"/>
     <use xlink:href="#DejaVuSans-69" x="842.773438"/>
     <use xlink:href="#DejaVuSans-63" x="870.556641"/>
     <use xlink:href="#DejaVuSans-6b" x="925.537109"/>
     <use xlink:href="#DejaVuSans-3a" x="983.447266"/>
     <use xlink:href="#DejaVuSans-32" x="1017.138672"/>
     <use xlink:href="#DejaVuSans-34" x="1080.761719"/>
    </g>
   </g>
   <g id="text_47">
    <g id="patch_75">
     <path d="M 845.036031 214.753109 
L 946.525367 214.753109 
L 946.525367 198.694431 
L 845.036031 198.694431 
z
" style="fill: #ffffff; opacity: 0.5; stroke: #000000; stroke-linejoin: miter"/>
    </g>
    <!-- vPortPreemptiveTick:8 -->
    <g transform="translate(849.034431 209.022329)scale(0.0833 -0.0833)">
     <use xlink:href="#DejaVuSans-76"/>
     <use xlink:href="#DejaVuSans-50" x="59.179688"/>
     <use xlink:href="#DejaVuSans-6f" x="115.857422"/>
     <use xlink:href="#DejaVuSans-72" x="177.039062"/>
     <use xlink:href="#DejaVuSans-74" x="218.152344"/>
     <use xlink:href="#DejaVuSans-50" x="257.361328"/>
     <use xlink:href="#DejaVuSans-72" x="315.914062"/>
     <use xlink:href="#DejaVuSans-65" x="354.777344"/>
     <use xlink:href="#DejaVuSans-65" x="416.300781"/>
     <use xlink:href="#DejaVuSans-6d" x="477.824219"/>
     <use xlink:href="#DejaVuSans-70" x="575.236328"/>
     <use xlink:href="#DejaVuSans-74" x="638.712891"/>
     <use xlink:href="#DejaVuSans-69" x="677.921875"/>
     <use xlink:href="#DejaVuSans-76" x="705.705078"/>
     <use xlink:href="#DejaVuSans-65" x="764.884766"/>
     <use xlink:href="#DejaVuSans-54" x="826.408203"/>
     <use xlink:href="#DejaVuSans-69" x="884.367188"/>
     <use xlink:href="#DejaVuSans-63" x="912.150391"/>
     <use xlink:href="#DejaVuSans-6b" x="967.130859"/>
     <use xlink:href="#DejaVuSans-3a" x="1025.041016"/>
     <use xlink:href="#DejaVuSans-38" x="1058.732422"/>
    </g>
   </g>
   <g id="text_48">
    <g id="patch_76">
     <path d="M 941.74451 175.916593 
L 1099.551154 175.916593 
L 1099.551154 150.530137 
L 941.74451 150.530137 
z
" style="fill: #ffffff; opacity: 0.5; stroke: #000000; stroke-linejoin: miter"/>
    </g>
    <!-- prvCheckTasksWaitingTermination:0 -->
    <g transform="translate(945.74291 160.858035)scale(0.0833 -0.0833)">
     <defs>
      <path id="DejaVuSans-57" d="M 213 4666 
L 850 4666 
L 1831 722 
L 2809 4666 
L 3519 4666 
L 4500 722 
L 5478 4666 
L 6119 4666 
L 4947 0 
L 4153 0 
L 3169 4050 
L 2175 0 
L 1381 0 
L 213 4666 
z
" transform="scale(0.015625)"/>
     </defs>
     <use xlink:href="#DejaVuSans-70"/>
     <use xlink:href="#DejaVuSans-72" x="63.476562"/>
     <use xlink:href="#DejaVuSans-76" x="104.589844"/>
     <use xlink:href="#DejaVuSans-43" x="163.769531"/>
     <use xlink:href="#DejaVuSans-68" x="233.59375"/>
     <use xlink:href="#DejaVuSans-65" x="296.972656"/>
     <use xlink:href="#DejaVuSans-63" x="358.496094"/>
     <use xlink:href="#DejaVuSans-6b" x="413.476562"/>
     <use xlink:href="#DejaVuSans-54" x="471.386719"/>
     <use xlink:href="#DejaVuSans-61" x="515.970703"/>
     <use xlink:href="#DejaVuSans-73" x="577.25"/>
     <use xlink:href="#DejaVuSans-6b" x="629.349609"/>
     <use xlink:href="#DejaVuSans-73" x="687.259766"/>
     <use xlink:href="#DejaVuSans-57" x="739.359375"/>
     <use xlink:href="#DejaVuSans-61" x="831.861328"/>
     <use xlink:href="#DejaVuSans-69" x="893.140625"/>
     <use xlink:href="#DejaVuSans-74" x="920.923828"/>
     <use xlink:href="#DejaVuSans-69" x="960.132812"/>
     <use xlink:href="#DejaVuSans-6e" x="987.916016"/>
     <use xlink:href="#DejaVuSans-67" x="1051.294922"/>
     <use xlink:href="#DejaVuSans-54" x="1114.771484"/>
     <use xlink:href="#DejaVuSans-65" x="1158.855469"/>
     <use xlink:href="#DejaVuSans-72" x="1220.378906"/>
     <use xlink:href="#DejaVuSans-6d" x="1259.742188"/>
     <use xlink:href="#DejaVuSans-69" x="1357.154297"/>
     <use xlink:href="#DejaVuSans-6e" x="1384.9375"/>
     <use xlink:href="#DejaVuSans-61" x="1448.316406"/>
     <use xlink:href="#DejaVuSans-74" x="1509.595703"/>
     <use xlink:href="#DejaVuSans-69" x="1548.804688"/>
     <use xlink:href="#DejaVuSans-6f" x="1576.587891"/>
     <use xlink:href="#DejaVuSans-6e" x="1637.769531"/>
     <use xlink:href="#DejaVuSans-3a" x="1701.148438"/>
     <use xlink:href="#DejaVuSans-30" x="1734.839844"/>
    </g>
    <!-- prvIdleTask:8 -->
    <g transform="translate(993.19007 170.185813)scale(0.0833 -0.0833)">
     <use xlink:href="#DejaVuSans-70"/>
     <use xlink:href="#DejaVuSans-72" x="63.476562"/>
     <use xlink:href="#DejaVuSans-76" x="104.589844"/>
     <use xlink:href="#DejaVuSans-49" x="163.769531"/>
     <use xlink:href="#DejaVuSans-64" x="193.261719"/>
     <use xlink:href="#DejaVuSans-6c" x="256.738281"/>
     <use xlink:href="#DejaVuSans-65" x="284.521484"/>
     <use xlink:href="#DejaVuSans-54" x="346.044922"/>
     <use xlink:href="#DejaVuSans-61" x="390.628906"/>
     <use xlink:href="#DejaVuSans-73" x="451.908203"/>
     <use xlink:href="#DejaVuSans-6b" x="504.007812"/>
     <use xlink:href="#DejaVuSans-3a" x="561.917969"/>
     <use xlink:href="#DejaVuSans-38" x="595.609375"/>
    </g>
   </g>
   <g id="text_49">
    <g id="patch_77">
     <path d="M 1126.987874 168.145532 
L 1164.042056 168.145532 
L 1164.042056 152.086854 
L 1126.987874 152.086854 
z
" style="fill: #ffffff; opacity: 0.5; stroke: #000000; stroke-linejoin: miter"/>
    </g>
    <!-- hang:4 -->
    <g transform="translate(1130.986274 162.414752)scale(0.0833 -0.0833)">
     <use xlink:href="#DejaVuSans-68"/>
     <use xlink:href="#DejaVuSans-61" x="63.378906"/>
     <use xlink:href="#DejaVuSans-6e" x="124.658203"/>
     <use xlink:href="#DejaVuSans-67" x="188.037109"/>
     <use xlink:href="#DejaVuSans-3a" x="251.513672"/>
     <use xlink:href="#DejaVuSans-34" x="285.205078"/>
    </g>
   </g>
  </g>
 </g>
 <defs>
  <clipPath id="pae6085a3ec">
   <rect x="172.8" y="93.312" width="1071.36" height="598.752"/>
  </clipPath>
 </defs>
</svg>
